<?xml version="1.0" encoding="UTF-8"?>
<svg id="Capa_2" data-name="Capa 2" xmlns="http://www.w3.org/2000/svg" viewBox="0 0 540.52 223.94">
  <defs>
    <style>
      .cls-1 {
        fill: #fff;
      }
    </style>
  </defs>
  <g id="Capa_1-2" data-name="Capa 1">
    <g id="znT04l">
      <g>
        <path class="cls-1" d="M85.24,219.8c-.34.06-2.89-.72-2.4-1.44-.38-.03-.28.49-.58.73s-.75.28-1.09.47c.43-1.67-.29-1.33-1.32-1.92l-.16.42-.44-.19c-.07.51-.02.53.48.48.36.48-1.78.75-2.01.73-.16-.01-.14-.4-.45-.56-.44-.23-1.55-.22-1.38.55h.72s-.12.73-.12.73c-.8-.1-2.76,1.61-2.52-.01l-.72.24.24-.72h-.96s.36-.96.36-.96c-.29.02.1.68-.36.36-.98-.67.08.36-1.18-.11l-.26.46c-.02-.85-1.66-.8-2.16-.24.07-.55-.9-1.01-1.31-.97-.14.01-.13.38-.19.41-.11.05-.3-.15-.38-.1-.12.07-.1.46-.39.57-.24.09-1.68.21-2.05.09l.48-.47h-1.44c-.31-1.04.52-.73.48-1.44l-2.16-.24.24-.48-.96.24.48-1.2-.94-.22-.26.45c.13-.72-.49-.14-.72-.6l.24-.48-1.44.13.36-1.2.36.72.22-1.18-1.3-.74c-.36,1.37-.84,1.58-1.79,2.4l-.26-.82.5-.5c-.91-.43-.79-.81-.92-1.69l.44-.23-1.44-1.92,1.42-.32.26.44v-1.68s-.48.24-.48.24l-.02-.95c-.67-.06-.84.19-.46-.49l-.61.23-.12-.72-.36.48c-.43-1.01-1.44-.76-2.24-1.48l.14-.31-.66-.13.44-.26-.2-.45c1.01.21,1.93.17,2.88-.25v-.36c-.79-.2-.22-.67-.48-1.32l-.47.48-.24-.72-.48,1.2c-.2-.78.11-1.57-.96-1.68.26-.83,1.06.08,1.43-.59l-.24-1.08c-1.08.4-1.18-.2-.48-.96-.93-.5-2.79-2.01-1.44-2.76-1.43-.38-.23-1.99-1.44-1.56.31-1.37-1.15-1.87.48-2.52-1.29-.37-.4-1.63-1.2-1.56l.95-.72-.03-.45c-.77-.08-.56-1.74-.69-2.42l-1.19.96c.09-.66-.46-.49-.96-.48v-1.2s-.24.96-.24.96l-1.44-.36c.52-1.36,1.4-1,2.38-.37l.95-1.31c-.12-.53-.93-.39-1.05-.59-.07-.11.11-.41.07-.45-.2-.22-1.15-.17-1.39-.64.85-.51.18-1.25.33-1.81.21-.78.39-.52.51-1.8.04-.43.61-.86-.37-1.31l-.24,1.68c-.6.23-.43-.36-.52-.41-.18-.1-1.47.43-.92-1.03l.48.24c-.14-.61.26-1.27.25-1.81,0-.65-.53-1.81-.71-2.22-.09-.22-.33-.88-.26-1.01,1.82.29.86-1.07-.48-.48.47-1.08-.13-1.09-.23-1.37-.09-.23.07-.63-.02-.85s-.68-.27-.47-.9l-.96.48v-.73s-.45.22-.45.22l-.47-1.09c-.13-.44.02-.26.27-.37.69-.31,2.78.1.9-1.03l.43-.48c0-1.53-.96-.25-1.15-.36l-.48-.72c.23-.97,1.37.31,1.2-.72l-1.53.24-.6-.5,1.13-1.3-.69-1.21.49-.59-.71.48h-.73s0,1.44,0,1.44l-.96-.25c.2-1,.89-1.67.9-2.8,0-.62-.82-2.13-.54-2.71.38-.77.34.73.84.24l-.24-1.2.71.48.24-.96c-1.05.23-1.03-.71-1.94-.86l.02-1.31.48-.24h-.72c.59-.87-.37-1.16-.41-1.25-.08-.18.3-.91-.54-1.28l.72-.12c.09-.44-.4-.15-.48-.24-.06-.07.85-1.1.48-1.68l-.96.24c-.21-1.44.22-2.67-.48-4.08-.65.11-.51,1.77-.72,1.92l-.95-.26c-.08-.08.34-1.36.21-1.75s-1.09-.36-.67-1.33l2.37-.26v-.72s-2.88,0-2.88,0l.48-.47-.93-.03c-.79-.93.73-2.39.68-2.98-.02-.21-.58-.27-.67-.4-.04-.07.2-1.01-.51-1.39l.84-.47c-.03-.54-.18-.91-.02-1.48.17-.64.98-.24.38-1.18l.72.24v-.48c-1.71-.24-1.49-2.06-1.86-3.29-.32-1.05-.95-.65.19-1.99-.31-.03-.66.32-.96.14-.21-.13-1.11-2.04-1.2-.62l.48.24c-1.51.33-1.91-.09-1.48-1.59.05-.16.76-.99.81-1.15.39-1.36-.68-2.11-.28-3.26h-.96c.3-.97-1.09-1.29-.55-2.34.28-.55.96-.35.31-1.74l-.47.24v-2.16c-.57.2-.84.29-.72.96l-1.19-.84c-.03-.42,2.34-.08,1.55-1.32l-1.08.24c.19-.49.18-1.74-.48-1.68l.96-.24-.48-.24c-.1-.11.39-.42.45-.65.25-.9-1.42-1.28-1.17-1.5,1.79-.57-.15-.94.24-1.68h-.72c0,.19.06.5-.05.65-.59.78-.63-.44-1.13.05l-.26-1.18h.72c-.53-.59.55-1.34.47-1.44-.03-.04-.33.04-.41-.04-.06-.07.25-.81-.13-1.1-.33-.25-1.06.05-.66-.78l-1.2.96c.12-.69-.29-1.41-.27-2.05.02-.44.45-.32.51-.51.27-.92-.61-.74-.61-1.41,0-.35.93-2.5,1.34-2.64.01-.78-1.35-.63-.92-1.52l.67-.51-.72-.37.48-.36c-.32-.76-1.02-.61-1.68-.48l.48-.48-.48-.12.43-.16-.54-5-1.33.24.48.48-.94-.02.22-2.14-.72-.24.96-.72h-.96s.12.48.12.48l-1.08-1.08,1.19-.72-1.91-1.08c.67-1.03,2.11.52,2.05-1.43-.05-1.62-1.05-1.29-1.81-2.53l.48-.24c-.2-.19-.34-.46-.64-.53-.43-.11-.42.53-.8-.43l.72-.36c-.69-.59.04-1.14-.72-1.32l.48-.12-.02-1.89h-.58c-.37-.4-.11-.94-.15-.96-.06-.04-.37,0-.6-.12-.19-.1.09-.57-.81-.15l.18-.43-.43-.18c-.07-.41.37-.76.46-1.19.07-.35-.34-1.33-.21-1.56.05-.09,1.28.41.7-1.42l-1.41.22c-.34-.5-.11-1.57-.73-1.44v-.48s.71.24.71.24c-.22-.44.16-.8-.48-.72l.48-.24c-.22-.56-.79-1.05-.48-1.68l-1.44.48.72-.72-.72-.24c.78.23.86-.3,1.44-.49l-.72-.24.48-.84c-.54-.13-.78-1.44-.49-1.87.15-.22.57-.04.48-.4l-.43-.12.19-.36-1.2-.25,1.2-1.19-1.92-.49.48-1.44c-.77.36-1.05-.48-1.11-.49-.37-.05-.86.34-1.28.25l-.25-.96,1.2-.26-.06-.82-.66-.72.72-.12-.72-1.43.66-.35c-.44-.53.06-1.24.05-1.46-.03-.72-1.02.46-1.45-.27-.27-.45-.09-1.11-.28-1.46-.07-.13-1.02-.73-1.13-1.14l1.19-.72-.25-.59h-1.31c.1-.65-.78-1.25-.81-1.33-.04-.15.29-.99.21-1.39-.04-.17-.35-.12-.47-.36-.08-.16.06-.54-.05-.72-.16-.26-2.06-.54-1.16-1.96l-.96-.25.48-.71c-.1.6.34.29.47.4,1.19.97,1,3.31,2.89,2.71.26-.72-.88-1.45-.89-1.54-.03-.18.19-.57.15-.95-.11-1.12-1.73-1.98-.46-2.67l-.25-.6-.71.48-1.2-1.8.47-.36.24.48v-.96s.48.48.48.48c.2-.97-.86-.51-.24-1.44l-.72.24-.13-.96-1.31.72-.21-.64c-.05-.82,1.24-.36,1.54-.78.75-1.03-.43-2.23-1.33-2.66-.37.64.35,1.6-.48,1.92l-.24-1.2-.72.24c.1-.86-.66-1.85.48-2.28l-1.68-1.32.86-.46.1.46.38-.5c.69.35.9.14,1.3-.45-1.8-.66-.75-2.58-2.76-3.36l.12.96-1.2-.72c.05-.54.56-.23.66-.31.36-.26.48-.95.3-1.36l1.68,1.2.47-1.56c-.41-.66-1.03,0-1.67-.12l.49-1.06-1.21-1.22c-.13-.8.68.12.72-.24.12-1.03-.64-.56-.73-.72v-1.32s.45.21.45.21c.3-1.14,1.65-.65.41-1.84-1.37.73-.97.3-1.5-.05-.4-.27-.82-.13-1.03-.84.39-.23.9-.28,1.26-.59.51-.43.13-1.36-.19-1.46-.78-.24-.4.48-.83.49l-.03-1.09-.69-.11c-.16-.51.26-.65.6-.48s.21.77.6.72v-1.28s.49-.27.49-.27c-.31-.44-.36-.96-.96-.6l.24-2.16c2.87.33,1.45-.99,1.78-1.67.38-.8,1.39-.14,1.76-.53l.3-1.15h.72s0,.72,0,.72c.64.07.84-.43,1.43-.6l-.96-.36.37-1.19c.41-.64,1.05.38,1.56.24l-.72-1.19.84-.48.48.72.36-.6-1.43-.72.4-.61c1.63.09,1.66,1.8.8,2.89l1.45.14c.13-1.69,2.24-3.2,1.91-.62.9.3.68-.72,1.31-.73l2.05.73.72-1.2c.02,2.14,2.77.56,3.61,1.32.61.55-.95.32-.24,1.32l.72-.48.12.72c1.46-.42,1.09-1.04,1.44-2.17l1.32-.23-.24-.72-.72.24.35-.99,2.53-.21-1.21,1.33c.04.75.91,1.03.93,1.1.11.31-.76.85.52.69l-.48.35.24.6c.51.16.66-.49.94-.59.35-.12,1.19.29,1.8-.37.39.08.83,2.27,1.69,1.2.07-.09-.18-.38,0-.49.4-.22,1.2-.24,1.66-.47l.74,1.19c.79-.68,2.79-.83,2.1.7l.42.18-.19.54.4.14-.22.61.87.23-.14.97c.86-.59,1.02,1.3,1.43,1.57.62.42,1.32-.77,1.93-1.09l.23,1.53.73.15-.43.27c.34.96-.38,1.83-1.25,2.14l.96.71.12-.96c.7.87.79,1.31.84,2.4h-.96s0,1.92,0,1.92h.72s-.17-.43-.17-.43c.78-.08.15-.65.3-1.02.46-1.2,1.07.54,1.08,1.07l-.5.28.97,1.9-.48.51c-.29.98.59.84.7,1.2.14.46-.54,1.56-.36,1.78.83.03,1.77.95,2.29,1.09.57.15,1.27-.51,1.68.23v.59s-.35-.48-.35-.48l-.97.73c-.93.1-.58-1-1.55-.73l-.02,2.03.97.5c.16.49-.41.28-.46.51-.05.18.17.73-.01,1.05l.81-.23c.9.25-.29,3.31.1,4.17-.98.56-.44.56-.43,1.58.89.12.84-.95,1.68-.72-.28,1.62.38.96.74,1.35.16.17.48,1.13.46,1.41h-1.2c.12.39.95.91,1.03,1.14.33.86-.26,1.82.69,2.52.08.06.39-.09.59.01,1.28.61.36.85.42,1.27s.66.93.8,1.37c.19.59-.01,2.24.78,2.22v.23c-1.09-.21-.78.74-1.92.24l-.22.82c.9.4.55,1.1,1.17,1.7l-.72.24.24.6c.4.1.11-.41.39-.48.27-.07.61.01.9-.01.36,1.53,1.29,1.09,2.55,1.22l-.26.82.49.15v.47c-.47-.24-.94-.01-1.44-.11-.81-.15-.02-.62-.71-.85.06,1.03-.93,1.6-1.44,2.4.69.07.97.53.97,1.2l.42-.17.2.43,1.05-.26-.48.6.96.12c-.32.83-1.15.72-1.68,1.31.27.73.97.92,1.68,1.09l-.25.71h.72s-.24.72-.24.72l.72-.48.24.96c-.98-.27-1.93.03-1.68,1.2l.96-.24-.25.48h.72c-.31.74.29,1.32.96,1.47l-.23.69,2.16.6-.69.63.21.44h-1.44c.06.73.06,1.69.42,2.34.17.31.98,1.23,1.26.78v.72c-.57-.46-.39.25-.96.24l.44.8-.65.75.21.85c.64-.75,1.32.21,1.56-.73.37.2,1.36.33,1.33.85-.1,1.85-2.15,1.51-2.18,1.92l.84,1.44-.85,1.08c.94.06.54.78.72,1.44l.96-.37.49,1.33,1.9-.47-.4.99h-.78c-.87,1.59.66,1.56.83,2.35.08.38-.55.9-.11,1.42.81-.37,1.11.83.54.98-.31.08-1.04-.31-1.55.36-.18.24-.34.96-.22,1.1.49.54,1.05-.91,1.2-.72v.95s1.09.24,1.09.24l-.13.72c-.55-.36-.83-.1-1.2.36.18.32.86.11,1.08.18.12.04.1.32.16.35.12.06.38-.18.42-.16.12.08.33,1.24.26,1.51-.04.17-.42.16-.43.2-.1.25.58.59-.3.8.18.8,1.91,1.44,2.64,1.09l-1.23,3.09-.44-.21-.18.61c.35.69.75.56,1.38.36-.25.75,0,1.49.72,1.8-1.33.86,0,2.45-1.2,3.12l1.68.84v-.96s1.2,0,1.2,0l-.48.35.72,1.33c-.51-.02-1.03.21-1.2.72.79-.34,1.03.02,1.18.82l-1.18.86.48.36-.48.24.48.84.24-.72c.68.02,1.41,1.53.89,1.88-.17.12-.58-.01-.65.05-.05.04.11,1.27.15,1.37.18.41.54.28.56.31.02.04-.3.87-.33.91-.07.12-.5-.1-.39.28h1.68s-.72,1.2-.72,1.2l.74.13-.25,2.03.72-.12c-.15.7-.17,1.15-.96,1.19l.48,1.08.36-.72c.28.52.4.79,1.08.73v.23c-.99-.22-.15,1.48-.28,1.64s-.67.15-.67.52l1.2.36-.72.24c.95.34.53,1.34.99,2.25l.93.03c.13.67-.25.47-.72.48-.07,1.16,1.21.99,1.92,1.56l-1.2.36c-.06.39.41.14.56.53.06.16.11,1.78.05,1.87-.18.29-.83.05-.45.96.32.68.92.18,1.52.24v.61s1.92.59,1.92.59l-.86.94-.69-.22c-.14-.09.22-.97-.85-.72-.34,1.52.9,1.43,1.37,1.98.42.49,0,1.47.78,1.38v.23c-.94-.1-1.06.83-1.67,1.33v.34s.62.24.62.24l-.14.72,1.68.49-.48.48.36.47.84-.47c.4.54-.98,2.93.24,3.24l-.48.84,1.17.05c-.03.83,1.17,1.62,1.24.43l.25.46.68-.21.4.71,1.19-.72.12-.72-.35.48-.58-.26v-.68c1.03-.03.72-1.03,1.66-.5l-.24-1.2,1.44.24c.1-.49-.36-.61-.57-.96-.08-.13.1-.45.08-.46-.22-.13-.78.21-.71-.25.31-.17,1.83-.43,1.9-.5.1-.11-.08-.61.08-.88.07-.12.45-.14.7-.64s-.1-1.27.08-1.57c.24-.41,1.05-.49,1.06-1.34l-1.42-.22-.47-1.45c.38-.65.8-.07,1.28-.11.09,0,1.25-1.18,1.29-1.26s-.14-.87.07-1.15l-1.68.48.23-1.29.73-.15-.48-.47h1.2c-.56-.82.9-1.53.48-2.16.2-.14,1.15.52,1.59-.36.47-.94-1.81-1.5-.87.11h-.48c.04-.81-.65-.47-.74-.61l-.23-1.07.35.48.57-.28-.18-1.38.69-.5c-.42-.05-.82-.22-.72-.72.57.54,1.84-.58,1.83-1.08,0-.18-.39-.35-.28-.59.11-.27.94-.95,1.34-.97-.33-.88-.53-1.09-1.44-.72-.19-1.25.18-1.75,1.22-2.31l-.25-.78c.19-.27,2.26-.41.7-.75l.24-.6-1.2-.12c.13-.24.17-.55.3-.77.72-1.24.87-.04,1.13-.19.42-.9.8-1.02.49-2.16l1.55-.23c.36-1.16.26-1.97-.11-3.13.49.21.86.06,1.19-.36-.4-.53-.7-.7-1.31-.36l-.12-.48.45-.11-.22-.61c1.37.13,1.36-1.02,1.92-1.92l-.72.24-.24-.61,1.2-1.68c-1.09-.59-.52-1.62-.02-2.41-1.48-.82-1.01-2.92.74-2.99l-.44-1.04c.37-.59.73-1.04,1.4-.64-.08-.78-.87-.56-.72-1.56l.48.12.22-.85c-.76-.17-.28-.85-.56-1.32-.15-.24-.69-.09-.61-.47l2.77-.48c-.32-.78.25-.68.29-.85.27-1.01-.62-.86-.68-1.44l.5-1.07c-1.23-.26-1-1.76.24-1.44v-1.2s-.61.02-.61.02l-.11-.73c.67.04,1.58.38,1.92-.48l-.96-.72c.62.62.58-.92.72.24l.48-.36-.48-.48.48-.6-.6-.25c-.31.79-.6.57-1.28.76-.35,2.37-.47-.05-1.36.68l-.12-.47c.34.12,1.54-.85,1.62-1.01s-.43-.63.18-.91c1.16,1.62.88.6,1.15-.36.04-.14.38-.06.43-.47.05-.51-.14-1.21-.03-1.65.07-.25.53-.22.67-.55.07-.17.52-1.36.53-1.45.03-.48-.43-1.01.37-1.52l.84.47c.2-.79.11-2.42-.96-2.16.58-.85-.65-1.32.31-2.08,1.01-.81,2.02.26,2.09.17.26-1.1-.82-.38-.96-1.44h1.2c-.68-.88.73-2.16.72-2.28-.03-.29-.79-.21-.71-.59l.72-.48c-.63.12-.39-.52-.51-.68-.03-.05-.36.15-.57-.02-.18-.14-.85-1.13-.85-1.33.75-.57,1.37-1.45,2.41-1.09l-.19-.43c.84-.3.72-.88.18-1.48l1.44-.84c-.54-.77-.79-1.12-1.67-1.44l1.2-.6-.24-.96.48.12v-1.56s.47.72.47.72c-.14-.9.48-.11.69-.25l.5-.83-1.44-.84c.76.34,1,0,1.68-.25l-.47-.6c.73-.46,1.43-1.21.47-1.68.48-.37.89-.31.72-1.08l-.72.12.48-.6-1.19.12c1,1.33.13,1.77-.48,2.89l-.49-.72c.84-.21.22-.55.35-1.09.06-.27.57-1.83.64-1.9.05-.05.94.35,1.18-.37h-.96c.5-.51,1.31-.17,1.48-1.03l.44.19v-.6s-.97-.99-.97-.99c-.01-.1.5-1.87.56-1.95.36-.55,1.09,0-.07-1.5l1.61-.6-.17-1.09-1.2.24.24.48-1.92-.12,1.38-.89-.18-.43.82.25c.17-.65.94-.43,1.54-.53l.27-2.12-1.44.61c-.68-.25-.35-2.54.03-2.74.07-.04.7.41,1.34-.1.09-.07,1.39-1.58,1.44-1.67.31-.54-.28-.83,1.03-1.26l-.48-1.55.72.24v-.48c-.66.1-.28-.36-.37-.49h-1.55c.06-1.26,1.57-1.17,1.2-2.88l.71.96.25-1.68-.72-.12.24-1.08.48.48c.18-.53-.24-1.58.48-1.44.04-.43-.42,0-.5-.58-.19-1.49,1.64-1.69.5-2.17.51-.65,1.16-.02.96.6.6-.1-.19-1.07.72-.48l-1.17-1.77c.35-.79,1.35-.8,1.42.09.33.2.71-1.38.72-1.68-.95.15-1.86-.13-1.29-1.2,1.13.09,1.5-.12,1.05-1.2l-.72.24v-.72c1.45.42,3.51-.98,3.16-2.52l.68-.12c-.96-.86-1.6-1.75.12-1.92l.14.7c.28.16,1.14,0,1.32.07s-.04.65.59.43l-.24-.72c.88.59,0-.79,1.2-.48l-.19-.43c1-.24.86-2.17,1.74-1.01l.36-.48c.01.91-.98,1.08-.47,2.16.56-.18.82-.31.73-.95l1.91.23-.49-1.44-.95.48.21-.45-.45-.14c.77-.76,2.61-1.86,2.64-.12l-.48.11.83,1c1.12-.21,1.81-.57,3.01-.16-.4-1.71,1.13-3.55,2.52-1.92l1.18-.47.43.66.44-.2.02.7.47-.08.24.58c.46-.17.71-.51.47-.96l1.2.11c.52.48-.67.6.12,1.09l.15-.43.78.21.75-.69c.8.43.54.91.36,1.63l.44-.19.05.41h.47c.03-.81,1.02-.81,1.69-.94l-.12.48c.61-.08.77-.08.96.48l.82-1.05c-.46-.61-1.1-1.32-1.9-.87v-.95c.83.06,1.75-.43,2.53-.02.69.37.77,1.12,1.55.97l-.48.96,1.44-.24c.08-.64.02-.61-.48-.84l.93-.34.27.94.72-.96.48.15.58.77,3.49-.44-.24-1.44c.63-.05,1.4.23,1.44.96.61-.07.2-.7.24-.72.94-.43,1.19.7,1.32.71l1.56-.72-.96-.72.44-.26-.21-.45,1.31.48.73-.96c.82,1.19-.42,1.16-.12,2.4.67.08.69-.99,1.52-.71.36.12.25.88.88.71l.21-1.1-.39-.15.17-.43-1.92-.24c-.02-.33,1.15-.44,1.33-.44.4.01,1.49.47,1.72.75.41.49-.02,1.8.67,1.81.84.01.6-1.44,1.69-1.87.24.88.85.38,1.56.24-.37-.66-1.99-.1-1.92-1.2.26.04,1.67-.26,1.8-.21.59.24.97,1.57.36,2.12,1.23-.26,1.77-1.11,2.52-2.09l1.06.54-.22.83c1.36-.13,2.31.71,3.6.96.52-.7-1.12-.93-.48-1.32.55-.34,1.54-.31,2.05.12l.23-.48c.39.15.11.63.17.68.18.14.83.12,1.03.52v-.73s.8-.21.8-.21c0,1.01,1.6,1.79,2.32.94.39.91,1.95.46,2.28-.48-1.06-.74-2.01.33-2.64-.61l.9-.42.66-1.1c.6.29,1.25.55.84,1.27l.48-.12-.24.72c1.17.46,1.1.06,1.2-.96.67.26,1.23-.18,1.68.6-.83.29-.67,1.05.12,1.32.69-.72.37-1.1.12-1.92.75.31,1.07.43,1.92.24l-.48.48c.31.77,1.79,1.11,2.53,1.09.58-.02.5-.53.93-.65.46-.14,1.13.12,1.29.01.14-.09.15-.61.39-.63.59-.07,2.14.86,2.92.22l.15.41c.93-.39.49.3,1.27.43l1-.88,1.16.48c.19-.55.98-1.02.6-1.43.46,0,3.69.4,3.12,1.2-.8-.41-.2.77-1.31-.41-.87.12-.6.61-.61,1.37l1.28-.24.76.72c.2-.44.29-.56.84-.49l-.19-.44.43-.27-.43-.03.2-.45c-1.59.16-.27-.93.35-.87.19.02.41.37.72.38.25,0,1.64-.66,1.8-.47.54.66-.55.72-.64.79-.26.19-.19.8-.79.41v1.2s.36-.48.36-.48l.48.48.52-.73,1.53.26.12.48c.21-.73.64-.48,1.32-.49-.72-1.29.11-1.07.35-1.44s-.1-1.11.48-.96c.11.03.31,1.92.12,2.16.98.09-.05-1.03,1.2-.72l.22,1.1c.88-.16,1.45.85,2.16.45.27-.15,1.12-1.67,1.67-1.29l.48,1.31c-1.31.65.05.46.16.56.38.33.31.95.35.99.64.67.25-1.5.5-1.66,2.38.56,1.85-2.33,3.82-1.94l-.96.24c.25.81-.04,1.47-.48,2.16,1.87.24,1.16,1.15,1.54,1.7.26.37,1.27-.06,1.1.7l.84-1.19.84.84-.48.36.6.24,1.08-1.68c.59.42-.19.76.92.68l.25-.9-.45-.26,1.2.24-.24.72c.39.34,2.39-1.47,1.19.84.94.26.29.87.26,1.56h1.2s-.24-.72-.24-.72h1.2s-.24.48-.24.48h1.2s-.24.96-.24.96c.17.15,1.47-.03,1.77.02.09.02.85.82,1.34.83.39.01.44-.29.73-.37-.14,1.11.68,1.25,1.13,1.76s.11.28.74.74c.82.6.3.62,1.61.15l.37,1.44.45-.2.03.44.38-.5,1.54.26.48-.96c-.14.69-.19,1.08.24,1.68-.39-.47-1.91.5-1.44.96l3.12-.48-.48-.47.96-.24c.17.91-.19,1.29-.72,1.92l2.4.24v-.96s.36.48.36.48l.12-.72,1.66.51-.22.69-.71-.12,1.44.36c-.29-.81-.21-1.26.24-1.92l.24.48h.47c-.09-.65.51-.39.69-.51.06-.04-.27-1.1.76-.69.07-.51.02-.53-.48-.48l.45-.35-.22-1.09-1.87.29-.29,1.87-.61-.72-.95.48c-1.03-.83.98-1.46,1.55-1.81.22-.14.29-.55.49-.68.07-.05,1.29-.22,1.62-.34.5-.19.18-.13.07-.52.94-.25.09,1.14.49,1.44l1.67-.36-.72-.11-.24-.96c.47.08,1.38-.33,1.76-.25.17.04.19.89,1.36.24l-.44-1.07c1.84-1.49-.57-1.11-.76-1.33l.6-.66c.84.4,1.65,1.17,1.57,2.1,1.17-.16.66-1.97,1.83-2.14.23-.03.84,1,1.76.22l-.24.72,1.56-.74.84.74.51-1.9c.79.15,1.03.21,1.53-.49l.36.96h-.72s.24.72.24.72c.66.17.59-.52.72-.96l1.67.96c0-.21.09-.46.23-.6,1.37-1.35.81.41,1.8.11l.74-.94c.4.98.69.44,1.56.72-.2.46-.69.09-.48.96.06.06,1.88.3,1.56-.24l-.8-.12-.03-.59h1.67s0-.74,0-.74h.36c.5.58,1.69.22,1.77.27.21.14.06,1.02.99.44.07.44-.28,1.02.37.97.11,0,1.7-.46,1.78-.51.06-.04-.43-.69.64-.93l.81.47c.2-.85.83-1.49,1.68-.96l-.24-.72.96-.24c.39.51-1.97,2.07-.36,2.41.46-1.26.95.1.12.35l1.2.36-.11-.48.71-.25c.36.81,1.31,1.13,1.57.12l-.48-.23,1.17-.88-.09-.44h.35c.01.81,1.3.83,1.92.96l-.48.36.83.12-.12.48,1.37-1.17,1.52.45.11.47.54-.35-.18-.36c1.01.42,1.02.05,1.56-.72.33,1.02.96.7,1.68,1.19l.11-.47c.5.02.98.02,1.47-.11.58-.15.65-1.55,1.19.2l-.5.26c.33.87,2.15-.21,2.64-.6l.28.93,1.41.03c-.12-.69-.92-1.1-1.2-1.56-.31-.52.75-.01.64-.58l.81.11.23,1.55c.56.28,1.32-.31,1.2.49l1.35-1.38c.99-.31,1.67,1.28,2.36,1.15l.48-.96,1.08.71c-.09-.27-.24-.96.24-.96-.16,1.23,1.49,1.09,2.04,1.92l.12-.72.36.72.39-.93.93.08-.24.48.48.6.47-.61.73.26.48-.98-.48-.23c.6-.61.8-1.29,1.8-1.32l-.05.43c.93.54-.22,1.56,1.5,1.97l1.08-2.15c.09.93.91,1.03.27,2.13l.83.5.35-.47-.48-.24,1.32.23.12-.96.24,1.2h.72s-.13-2.17-.13-2.17l1.09.02-.24.47h.96s0,.72,0,.72h-1.3s-.13.47-.13.47l1.32.96,1.05-.83-.22-.85c1.43.56,2.32-.44,3.6,0l-.24.47.94.03c.35,1.96,1.2-.02,2.18-.03l-.48-.24.36-.47c.63.65.7,1.4,1.8.95l-.03-1.16-.44-.27h.72s-.48-.36-.48-.36c.39-.51,1.03-.53,1.44,0-.52-.11-.66,1.63-.48,1.8.34.31,1.18-.92.96-1.2l1.32.96c.7-1.43,1.2-.87,2.52-1.2.16.84-.5,1.08-1.2,1.2l1.08.96.96-.96.35.48c-.02-.81.58-.49.67-.56.24-.17.17-.73.9-.57l.95,1.85.59-.39.02-1.29c.76.22.86-.19,1.3.64.81-.06,1.21-.73,1.94.07l.22-.45,1.8.21.4-1.21,1.53.02-.48.71c.58-.06.65.49.72.96l1.76-.91,1.59,1.39.72-1.76.48-.16c-.1,1.21,1.55,1.27,2.4,1.68l.26-.82-.48-.24.22-.86,1.19.48c.03-.83.88-.68,1.45-.96.08.79-.44,1.3-.95,1.81l.84,1.07.6-.17c.03-.95.37-1.06,1.19-1.28l.24.96.58-.25.29.49c.82.22,2-.16,3.11-.01.63.08,2.93,1.04,3.23,1.57-1.43.58.32.67.45.87l.03,1.64c.79.21.49-.81.77-1.15s.92.2,1.03-.53l2.16,2.4c1.32-1.6,3.84.32,3.72,2.16l.47-.12c-.58-.91.28-.61.42-.7.36-.25.44-1,1.02-.86-.1.94-.27,1.37.35,2.17.5.63.19-.46.79-.09,1.06-1.34,1.19.98.54,1.76l.84.49c.5-1.18.58-.25.6.48l.24-.72.93.04c-.18.93.96.83,1.25,1.33.22.37-.05.72-.01.87.07.25.46.22.58.39.14.21-.5.79.51.28.68.79,2.01.52,1.31,2.13,1.44-.66,3.02.59,2.88,2.16l-.96-.24.24.96.26-.43.7.09.35-.85,1.13,2.58,2.34,1.13c-.39.53-.59.57-1.19.36l.03.68c.29.12.8.09,1.03.25.43.29-.47,1.06,1.34.51-.08.85-.12,1.62-1.2,1.2l.24.72.72-.25c.04,1.27.57.76,1.01.98.27.13.29.65.91.47l-1.92.84c.24.55.89.4,1.09.59.77.69.16,1.13,1.9.25.78.45-.24,1.23-.02,1.68l1.34.72c.04.45-.79.32-.94.51-.18.23.67,2.29.22,2.85h1.44c-.54.59-.91,1.04-.25,1.77.23.26.85.03.74.63l.26-.45.94.22-.22.61.46.11-1.44.48.72.36-.24.6-.47-.48c.15.87.38,1.6-.01,2.46-.12.27-.56.04-.47.41.55.34,2.23-1.2,2.4-.35.08.5-.41.78-.48,1.21-.1.62.5,2.15-.31,2.68-.24.16-.72-.13-.65.3.77.09.7.33.48.96l.44-.21c.17.67.54.96,1.23.94l-.24.47.72.02v.94s-.95-.24-.95-.24c.73,1.06-.22,1.12-.25,1.55-.05.67.42,1.82.4,2.17-.03.4-.86.94-.87,1.44,0,.16.35.11.38.18.7,1.4-.34.56-.38,1.74l1.45,1.68c-1.91,1.29.2,1.81.25,1.94.19.56-.51,1.18-.97,1.42.94.29.48,1.42,0,2.04,1.14.21,1.98-1.3,2.16.48-1.37.02-.95.53-1.21.81-.46.49-.71.49-1.19.75l1.22,2.01c.38.11.98-1.1,1.41-.33-1.05.35-.66,1.03-.71,1.08-.55.45-.36-.59-.72-.48l.22.86-.47.45.7,1.7c-.04.46-2.34.18-1.71,1.02l-.81.89c0,.92,1.55.96,1.61,1.23.14.59-.11,1.46-.74,1.65l.48.12.24,1.2-.6-.48c-.44.11-.18.91-.12.96.07.05,1.11-.43,1.66.02l.26,1.18c-1.22-.24-.5,1.76-2.04.57l-.83.51.72,1.32h.36c.37-.14.59-1.11,1.08-.36-.36.61-.66,1.39-1.43,1.57v.47c.58.02.68.74.95,1.08-.2.51-1.02.5-1.22.76-.39.52-.25,1.33.38,1.28.1,0,.58-1.18,1.56-.6-.07.5-.88.79-.93.88-.05.07.4,1.02-.74,1.16-.02.56.84.04,1.09.07l.35.64c-.61-.38-.34.05-.67.22-.3.15-.72-.21-.89.5l-.35-.02c-.09-1.06-.67-.4-.36.26l1.55.23-.24,1.44-.83-.24-.61,2.64-.44-.21c-.36.84-.62,1.56-1.47,2.01v.35s.7.36.7.36l-.46,1.57h1.32s.12.48.12.48c-.82-.05-.43.63-.56.91-.02.05-.38.07-.48.36-.09.24.12.63.08.65-.66.47-.79-1.5-.48-1.79l-.48.12.24-.72h-.96c-.04.95.75,2.15-.12,2.64l-.28-.73c-.32-.03-.86-.38-1.04.13-.34.95.55.21.7.73l.02.82-.69-.21c.06.7-.99.63-.99.81.89.09.82.51.96,1.32-.59-.31-.84.37-1.42.52l.22,1.17-.47-.24-.37.96-.12-.96c-.28-.07-.62.13-.72.36-.19.45,1.29.43,0,.98v.46c.02.41.82.46.49,1.31l-1.64.04-.52,1.52.72-.6.25.81c-.9.51-.04,1.19-1.45.63.51,1.15-.81,1.07-1.08,1.42-.13.18.35,1.51-1.08.98l.96,1.2c-.3,0-.6.04-.85.23-.65.48-.1,1.58-.94,1.22-.95-.41.31-2.23.12-2.4h-1.92s.72.48.72.48l-.48.84c.78.21.4.59.47,1.17l.96.15-.72.24.48.59c-.24.52-.73.13-.91.2-.04.02-.05.37-.21.4-.61.13-1.12-.19-1.64-.19-.98,0-1.99,1.3-2.99,1.63l.72.47c-.57.04-.88.16-1.06-.45l-.84.23c.28.35-.03.82,0,1.04.02.16.76.19.47.86-1.28.28-2.19.5-3.35-.23-.24.59.48,1.46.49,1.79,0,.14-.38.1-.48.31-.3.58-.32,1.84-1.45.9l.72-.12-.24-.72.72-.12c.16-.79-.55-.68-.67-.88-.05-.08.39-1.4-.53-1.16-.02.54.15,1.12-.24,1.56-.95,1.07-2.78-.72-3.11.98-.12.59.53.12.46.58-.41.04-1.7-.39-1.92.12l.48.6.47-.48v.72c-.51.36-1.01-.91-1.44-.48-.09.09-.02.73.23.85.25.15,1.09-.47,1.44.23-.54,0-.4.68-.51.79-.06.06-1.52.26-1.77.27-.68.04-1.56-.5-1.67.26l-.12-.73c-.48.34-2.2-.1-2.4.61-.17.6.51.18.74.5l-.02,1.3-.92-.04c-.02-.52-.95-2.13-1.48-1.64.14,1.32-1.29.92-2.16,1.21l.2.44-.66.41.21.69c-.66.23-.32.71-.48,1.34l-.47-.72-.45.6.2.6-.48-.72c-.75-.13-.37.22-.48.55s-.4-.17-.48-.08c-.39.43.41.47.47.65.09.27.31,2.07.25,2.23l-.48.24.48.12-.87.85c.2.31.43.76.73.96.94.65,1.33-.21.38-.61l1.2-.84.24,1.68.48-.24v.96s-.96,0-.96,0c-.03.65-.15.87.49,1.08l-.48.12v.72s.72,0,.72,0l-.48.36.72.12-.48.48.72-.72.47.48.72-.96c-.35,1.18,1.16,1.89.48,3.12l1.2-.24c-1.09.86.65,2.42-.48,2.4l.48.24c.1.42-.41.16-.48.24-.19.24.75.94.24,1.44l.72-.48.72.72c-.5-.59-1.03-1.1-.96-1.92l.48.24v-1.2s.48.24.48.24c.05-1.62,2.22-.81.25.35l.7,1.78c-.57-.13-.37.69-.6.76-.34.1-1.02-.2-1.3.1.31.53,1.06.22,1.39.41.17.1.34.96.98.94l-.21.44.62-.22.21.44.62-.22c-.74.59-.59.52-.71,1.43.66-.22.69.45.83.5.72.23.34-2.4,1.56-1.92l-.48.71c.68-.13.17.75.7,1.29-.1.79-2.07.23-1.57,1.84.22.71,1.29.66.87,1.91h1.2s.12,1.93.12,1.93c.93-.03,1.01.6,1.32.78,1.28.75,1.72.05.54,2.21l.88.62c-.35.67-.2,1.22.02,1.89l.24-.48,1.09.49.58-.49.03.44.45-.2c.43.87-.39,2.35.49,2.52v.6s-.48.24-.48.24l.48.24-.72.12c.89.46-.1,1.31.65,1.37l-.17.43c.84.39.98-.18,1.56-.71.79.58.48,1.82,1.56,1.92l-.48.24.48.96c.62.13.36-.15.59-.48.91,1.15,1.27.75,2.36.97.09.02.45.73.77.71.75-.05.02-1.16,0-1.32-.07-.67.25-2.58-.85-1.43-.2.21-.13.66-.48.6l-.72-1.32.48-.36-.48-.24,1.18-.48.02.72c.51-.13,1.55-.54,2.01-.5.15.02.11.76.75.49.68-.37.16-1.52.39-1.89l.92-.3v-1.41s-.69.22-.69.22l-.5-1.66,1.18.25.26,1.43c.67-.2.3-.84,0-1.19l.46-.35c-.28-1.25-1.65-.84-1.66-1.22.06-.78,1.38-1.01,1.44-1.09.09-.13-.89-1.69,1.2-.95v-.72s-.72.24-.72.24v-.72s.96-.12.96-.12c-.66-.11-.24-.5-.47-.71-.6-.56-1.78-.46-1.69-1.57.63.27,1.17-.23,1.32.48l1.32-1.8-.72-.12c-.16-1.23,1.38-1.38.96-2.64h.97c.06-.62-.14-1.41.04-1.99.11-.34.58-.54.6-.77.05-.59-.47-.67.02-1.92.23-.59-.79-.75-.42-1.08.45-.41.92,1,1.08,1.2.52-.93,1.81-2.43.37-3l1.66-.61c.17-1.09,0-1.52-.95-2.03l.41-.16c.03-1.75-.85-.79-1.37-.8-1.17,0,.24-1.06.24-1.56.65.32.11,1.25,1.2.96l-.25-.48.72-.24-.96-.48c.64.39,1.01-.21,1.66-.27l.02-1.41.6.95.36-.59-.48.12.24-.96-.72-.13.22-.94-.69-.49c.17-.38,1.29-.72,1.4-.89.08-.11-.14-.44-.05-.66.25-.65,1.11-1.53.09-1.8.19-.48,1.45-.54.83-1.33l-.83.25v-1.44c1.91.76,2.08-.15,2.16-1.68-.52.09-2.4-.68-1.92-1.44l1.57.45.35-.45.48.48-.02-.94c-.75.05-1.14-.77-1.66-1.22l.67-.18c.41.94,1.52-.1,1.01-1.03l-.48-.11.61-.6.83.71.37-.72.36.48.72-.72-1.44-1.2c.97-.85-.37-1.8.84-2.16l.35.48-.46-3.33,1.17-.52-.23-.58.96-.13-.96-.24c-.26-.94.94.1.96-.6s-1.35.34-1.19-.48c1.02-.65.82-1.07,1.07-1.8.11-.33.52-.65.53-.84.03-.45-1.15-1.12.26-1.12.09-.06.31-1.12.28-1.24-.04-.18-.38-.15-.41-.28-.13-.58-.21-1.2-.06-1.8l.98.37c1.07-.39.85-1.31-.26-.85l.24-.72c-1.1-.33-1.34.43-2.16.48.38.71-.12.72-.36,1.44-.83.01.45-.66-.6-.83.55-.25.47-1.25.52-1.29.17-.12.63-.02.81-.26.08-.11-.14-.46,0-.73.05-.09,1.27-1.37,1.36-1.42.27-.14,1.23.61,1.63-.16l-.48-.23c.72-.62.09-1.21.1-1.45,0-.36.44-.6.34-1.14-.13-.65-.56-1.07-1.15-.66l-.24-.96c.85-.07,2.57-.01,2.4,1.2l.6-.48.36.48c.3-.63-.44-.75-.44-.83,0-.14.21-.38.16-.68-.08-.46-.56-.74-.19-1.37l.47.48.17-.74.55-.46-1.2-.24,1.92-.12-.72-.24.48-.24v-.36s-.43-.03-.43-.03c.08-.96.03-1.78.44-2.69.28-.62,1.12-1.21.27-1.15.39-.73-.07-.63-.43-1.18l-1.02.45c-.13-.73-1.08-.12-.77-1.26.07-.25,1.58-.44,1.78-.39.3.07,0,.59.39.49l.25-1.44,1.44.48c-.42-.29-.33-1.11-.45-1.28-.2-.28-1.43-.37-1.23-1.6l.82.02.15-.72.94-.03c-.15-.37-.67-.25-.38-.89.36-.8,1.13-.24,1.82-.55l-.47-.35,1.2-3.97h-.96s0-.72,0-.72c.52.34,1.81.19,1.32-.47-.69.63-1.05-.76-1.5-.97-.42-.2-.96-.03-1.16-.21-.49-.44-.08-1.16-.83-1.35.49-.6.48-1.08,1.42-.82l.02.7,1.04-.26c.39.58,1.06,1.21.64,1.94,1.35.04,1.02-1.8,2.16-1.2v-.96s-1.68.24-1.68.24c-.23-.24.81-1.83,1.2-1.68l-.48-.59.96-.37c.1-.38-.33-.17-.39-.28-.1-.18.01-.67-.31-1-.34-.34-.9.11-.74-.64l.73.1.83-1.3.24.48c.99-.66.8-1.36.6-2.4-.4-.11-.11.46-.38.5-.45.07-2.16-.8-1.78-1.22.48-.03,1.02-.14,1.44-.36.76-.4-.69-.3-.24-.84.05-.06.92-.13,1.2-.37s.13-.95.72-.84l-.5-.38.24-.8-.45-.26c.86.05,1.39.23,2.16-.25l-1.09-.71.37-1.43c-1.28,0-.98-.74-.49-1.59.87.33,1.45-.18,1.46-1.06l.72.48.19-.86-.66-.35.48-.47-1.91-.84c.55-.24.25-.99.45-1.22.41-.47,1.69-.65,1.83-1.78.76-.06-.35.71.59.47-.09-.68.4-.16.72-.6l-.48-.11v-.73c-.25.25-.88.02-.92.05-.53.34-.54,1.86-1.96-.05l2.4-.24-.25-.48h.71c-.28-.42.19-.85.17-1.08-.03-.37-.88-.6.04-.63l-.19-.54c.77-.28.35-.66.47-1.18.07-.28.72,0,.49-.64l-.72-.12c.3-.35.51-.61.96-.36l-.48-1.68h.96s-.48-.72-.48-.72l.48-.24c-.47-.02-.96-.49-.85-.98.63-.37.76-2.17.9-2.33.11-.12.59-.03.79-.28.08-.1.69-2.15.72-2.38.12-.91-.95-.8-.84-1.34.74-.76,1.86.42,2.63-.72-.21-.28-.37-.4-.7-.5-1.59-.52-.44,0-.85-.59-.24-.34-.89-.01-.85-.47l.83-.24-.11-.72c.46-.1.41,1.46.95.96.1-.09.14-.98.28-1.16.04-.05.91-.03,1.17-.28-.21-.47-.5-.92-.63-1.43-.15-.61.45-1.06-.33-.96v-.48s.44.2.44.2l.27-.54c.16-.14.62.38.48-.25-.19-.89-1.32-.37-.95-1.2.25-.57,1.01-.14,1.43-.35l.49.71.24-.72c.09-.37-.33-.13-.47-.42-.32-.64.38-2.11.18-2.42-.09-.15-.89-.31-.91-.76h.96c.12-.41-.04-1.65.12-1.92.08-.14,1.18-1.04,1.26-1.25.07-.18-.26-.5-.17-.64.06-.09.73-.11.91-.68.2-.63,0-1.4-.44-1.88.49-.22.57-.21.48-.84l-.71-.12,1.31-1.07.48.42c.59-.41.66-1.27,1.56-1.16-.4-1.13.06-1.67.96-2.27l-.49-.24c-.18-.95.89-.52.73-1.32l-.96-.25.48-.47-.96-.72,3.12.96-.48-.96c.44-.37.49.94,1.39.43.66-.56.13-2.49,1.26-1.75.25.16.1.87.71.6l.47-1.08-.95-1.07c.55.11,1.97-.46,2.24-.44.56.05.79.83,1.6-.05v.96s.96,0,.96,0l-.25-.83.5-.27-.25-1.06,1.44.24-.72.24v.72s.48-.24.48-.24v.96s1.8-.72,1.8-.72l-.6-.6.47-.36.11.46.62-.22c-.39.62.06.35.22.67.2.39-.18.88.63,1.02.71.13.59-.31.95-.73.18.68.4.25.54.32.07.04.06.37.22.4,1.19.25,1.25-.6,1.53-1.44l1.08,1.2c1-.2-.14-.95.96-1.21.28,1,1.58.26,1.32,1.44.7-.57,1.45-.28,1.8-1.2l.76.98,1.04-.26-1.2.48,1.08.95c.59-1.09.49-2.67,2.16-1.46l.87-1.38,1.16.21-.48.23.6,1.92,1.56-1.2.23,1.09-.71.12c-.32,1.6,1.11-.09,1.44.24.1.1-.25.48-.19.68.12.38,2.37.97,2.83,1.24l-.24-.48c1.7-1,4.2,2.12,1.44,1.68l.24.72c-1.4-.3-.38,1.04.17,1.18s.94-.57,1.03-.46l-.24.96c.83-.45.95.75.98,1.42l.69.14-.37.84,1.6.62c.58.99-.77,1.03-.26,2.02l1.2-.48c.4.66-.26,1.61-.19,2.01.09.48.92.51-.05.74l.48,2.05.72-.24c-.02.52-.18,1.05.48.96-.77.81-.58,1.36-.47,2.39l.71.13-.71.48c.65.65,1.57.46,1.92,1.44l-1.08.22c-.79.22-.27,1.49.6.86v.96s1.2-.24,1.2-.24l.23.84c-.58.43-1.24.06-1.61.95.86,1.13.98,1.87.66,3.24,1.73-.6.41.87.53,1.31.08.28,1.19,1.08.92,1.79l1.66.02-.48,1.2.72.36c-.48.68-1.52,1.72-.24,2.05l-.48.47,1.68.84-.48.25.11,1.19c.87.72.86.85.85,2.04.14.14,1.65-.94,2.31.35.19.37-.82,1.48-1.02,1.54-.49.15-1.02-.29-1.52-.21v.96s2.4.24,2.4.24l-.96,2.51.6-.36c.63.49.48,1,.36,1.68l-.48-.24c-.04.67.52,1.9-.24,2.04l.45.48c-1.49,1.29-.24,2.86.63.6l.13.7,1.19.02-1.2,1.92.72-.24.24,1.44c.63-.54,1.28.29,1.2.96l-.94.02c.02.97-.32,1.21-.72,2.04l.7.47c-.5.23-.56.2-.48.84l1.22.11c-.08,1.57,1.31.88,1.18,2.05l.47-.48c.23.53.77,1.86,1.44,1.44v.72c-1.52-.88-1.96-.27-1.9,1.3l.7.14c.09.14-.47.84.24.96.32-.36.08-1.39.72-1.2l.71,1.08c-.59.88-.95.74-1.91.6l.2.44-.66.6.93,1-.48.95c.02.09.37.11.47.3.57,1.11-.12.98,1.7,1.02.03.71-.74,1.39-.69,1.97.05.5.51,1.22.73,1.7.1.22-.04.57,0,.6.22.23,1.26.3,1.39,1.12-1.19.48-.93,1.87-.93,2.96l.82.27c.23-.32-.02-.61.59-.48.32.39.26,1.1.72.96-.16.47-1,.3-1.44.61-.16.11-.26,1.03-.23,1.07.04.05.58-.35.94.39-.61.77.64.43.25,1.04-.03.04-.38-.08-.43.11-.02.11.02,1.18.07,1.33.23.72.43-.65.84,0v-.96c1.23.04.69.95.83,1.44.1.34.44.65.5.96.16.87-.19,2,.36,3-.35.45-.2-.32-.25-.36-.32-.24-.7,1.17-.72,1.44l2.29.47.05,1.18-.42.15,1.68,1.8-.96.48-.12-.72c-.45.3-.72,1.56-.57,1.99.09.27,1.28.98,1.37,1.77.03.25-.27.46-.34.72-.08.3.42.64-.33.55l1.2.96-.48.71c.38-.04.66-.24,1.04.02,1.57,1.05.4,1.47.16,2.03-.26.62.91.14,1.2.72.17.46-.36.32-.4.41-.05.11.14.3.1.37-.05.09-.44.07-.56.51-.46,1.74,1.38,1.73,2.3,2.78l-.96.36c.57.6.21,2.05.78,2.57.28.25,1.49.11,1.39,1.12-.02.26-1.72.43.23,1.48v.58c-.39-.09-.53-1.03-1.09-.48-.1,1.03-.22,1.44.72,1.92l.72-.71c.71.26.34.93.39,1.04.03.07.66.74.68,1l-1.91.84c-.12.61.42.97.56,1.48.18.66-.46,1.77,1.12,1.39.42.76-1.71,2.84,1.66,2.41.25.96.89.99.74,2.15-.78.19-.34-.45-.5-.69l-1.78-.27-.12.48,1.08.96.11-.48.95.27c.07.11-.06.98-.14,1.18-.2.51-1.14.56.14.98l-.45,1.28c.98.58.48.38.52.97.04.62.47.72-.32.99.04,1,.67.6.85.81.04.05.17.92.38,1.09l-.83.35-.14.49.62.24-.14.73c.51.07.52.02.48-.48l.51.71.69-.23-.14.96.84.51c.05.08-.49,1.2-.47,1.52,0,.14.44.12.48.3.23.96-.43,1.99.84,2.72l.23-.48.84.61c.17.41-1.35.61-1.41.57-.1-.07-.13-.71-.5-.69l-.24.85c.88.92,1.34,1.66.96,2.98.79-.11,1.23.27,1.68.84l-1.68.72,1.2.12.28,1.65.68.03-.5.39.26,1.29c.46-.19.1-.69.96-.48-.38.44,0,1.57-.04,1.64s-1.11.68-1.16.99c1.02.15.52,1.56,1.92,1.2l-.24-.48,1.64.27-.09.7-2.27.47c.03.95,1.07.99,1.68.72l-.48,1.44-.72-.24.18.43-.3.53c.46.56.44-.4.77-.49.91-.24.78.43,1.05.58.83.48,2.11.15,1.31,1.58-.21-.63-1.21-.23-1.28-.28-.2-.16-.14-.84-.76-.67.43.9.66,2.14,0,3l1.44.36-.26.8.74.51-.49.26.37,1.06c.4-.16.11-.62.17-.67.78-.66,2.74-.71,2.11.68l-1.68-.48c-.54,1.3.61,2.39.25,3.59l1.29.25.62-1.43.95,1.08c-.39.12-.6.63-.77.77-.08.06-.54-.42-.43.31l-.96-.47.49.36-.49.96.71.12-.24,1.68c.64.11.83-.12.99-.69l1.17.21-1.68-1.08.38-.61c.93.45,2.08.1,1.77,1.45h1.92s-1.68,1.2-1.68,1.2c.97.16,1.57.27,2.04,1.2l.79-.84-1.64-.96c.56.03.79-.56.89-.59.95-.29.77.45,1.14.73.22.16.59.03.73.22.35.47.07.63-.36.24v1.04c.08.4,2.47.45,2.76.35.16-.05.32-.87,1.07-.43l-.48-.84.48-.24-.48-.36c.66-.09,1.16-.02,1.2.72l.35-.48c1.28,1.15,2.31,1.16,2.89-.48l.67,1.6.64.32c-.2-.9.95-.78.73-1.76l.47-.16c-.38.48,1.03,1.76,1.44,1.44l-.24,1.68.7-.26c-.26-.53-.11-1.05.38-1.39l1.08.56c-.59.14-.18,1.43.15,1.52,1.17-.05,2.42.49,3.46-.2l.25,1.92c.15-.01.92-.28.95-.24.64.75-.43.92-.49,1.09-.18.6,1.13,1.15,1.69,1.56l-.48.36.72,1.08-.72.24h1.44c.34,1.1-.55,1.08-.48,1.92l.72.12-.53.79-1.16-.3c-.05.59.65.45.9.68.08.07.07.36.17.54.07.11.33.1.34.21,0,.35-.4,1.05-.2,1.57l.48.11-.48.6c.7-.15,1.03-.26,1.32.48l.36-.48c.5,1.15.69,1.73,0,2.88-.64-.16.04-.85-.71-.72l.95-.6-.48-.84c-.35-.25-.99.59-.96.96l-.47-.48c-.48.78-.38,1.29.09,2.07.27.43,1.09.46.62,1.04l2.16-.48c-.39.49-.47,1.85-1.03,2.09-.2.09-.48-.13-.66-.05-.78.37-.14,1.18-.48,1.79h.72s-.48.72-.48.72l.48.48-1.17-.21c.1.8-1,1.04-1,1.53,0,.78,1.59.9,2.17,1.08l-.5.37.51,1.41c-.74.28-.71.83-.74,1.56h-.95s.72,1.33.72,1.33l-.5.26.24.8-.46.26.48.12v.35s-.46.02-.46.02l-.02.46c.52-.03.73.49.72.96l-1.2.61.72.12c-.09.56.03.64.48.84v.36s-.48.24-.48.24c1.05-.27.43.77,1.2.73l-.71.71-.73-1.44c-.6.11.19,1.07-.71.48l.6.93-.13.75-.72-.14c-.74.72-.36,1.44-.24,2.3h-1.32c-.05.42-.53,1.04-.56,1.36s.61.78.43,1.02c-.04.05-.46.05-.6.25-.16.23.19.61-.09.84-.08.06-.34-.03-.5.05-.47.25-.42.69-1.2.31l.51-.59c-.24-1.01.11-1.98-1.23-1.33l.48.71c-.4-.09-.41.38-.67.47-.76.27-.67-.46-.9,1-.71.25-1.45.36-2.15,0l-.34.35.23.59h-.94s-.15-.73-.15-.73l-1.07.02.02.61c-.63.24-1.75.3-1.7-.61h1.07c.55-.55-.34-.68-.35-1.2-.4-.09-.12.31-.35.43s-.7-.08-.72-.43l-.54,1.09.89.7c-.3.89-1.45,1.35-1.79.36-.63.26-.54.38-.72.97l-.37-.96c-.94-.06-.59.8-1.78.23l-.12.72-1.68-.48c-.25-.93.62-.45.48-1.2-.58.3-1.05.1-1.57-.23l-1.31,1.19v-.96c-1.11.73-2.49-2-2.89-.24l-.95-.48-.25.6.43.15c-.42.81.23.6.54,1.29l-.6.6-.58-.26c.52-.42-1.09-1.58-.53-.5l-1.29.76.12-.72-.72.24v-.48s.96-.48.96-.48l-2.16.24.24.72h-1.2s.24-.47.24-.47l-.86-.22-.11.46-.39-.49-1.51.25-.26-1.44c-.08-.07-1.89.46-1.68.96l-.47-.48-.36.96-.22-.46-1.1.22-.12-.96-.58.39c.15.36.22.7-.25.81l-.25-1.44-.43.17-.19-.43-.81.26-.12-.96-1.08.96c.54.06,1.26.05,1.2.72l.48-.37.48.25-.24.84.67.04c.33.29.14,1.73-.42,1.88-.44-.92.08-.63.15-.78.5-1.07-.35-.4-.59-.47-.36-.11-.6-1.48-.88-1.62-.54-.27-.28.98-.83.96l.24-1.2-1.8-.71c-.6.47-.59,1-.36,1.66-.29.29-1.95-.12-2.11-.28-.25-.26-.08-.8-.6-1s-1.08.16-1.61.09l.23-1.3c-.23-.56-.76-.13-.91-.21-.06-.03-.07-.87-.93-.09-.67.6-.02.53.17.89-.88.39-1.4-.63-1.48-.66-.18-.07-.62.4-.91-.18.15-.31.5-.87.48-1.19,0-.14-.36-.14-.39-.2-.07-.15.11-.44-.09-.55-.44-.25-1.04.36-1.21-.35l.82-.27,1.1-1.41c-.61-.07-1.28.55-1.56.96h-.36c.08-.72-.43-.14-.72-.61l.71-1.2c-.48-.55-1.53.1-1.22-1.06l-.7-.02c.03-.2-.05-.65,0-.72.47-.59.42.81.72.35l-.74-2.75h-.94s.23.59.23.59l-.47.12c-.31-1.68-.59-3.31-.24-5.04l-1.53.46c-1.07-.64-.23-1.25-.23-1.55,0-.24-.55-.41-.4-.84.09-.1,1.87,1.64,2.16.48l-.72-.24.12-.48-.6.48v-.96c-.57.17-1.08.19-1.42-.39,1.19-1.78.15-3.8-1.22-5.01.63-.17.35-.52.48-1.08l.48.24-.6-1.2-.59.48v-.96s-1.44.48-1.44.48c.72-1.34-1.62-2.21.6-3.12l.12.6.48.12.72-1.56-1.43-1.32-.14.97.86.71c-1.12-.72-.96.28-1.92.24l.48-.35c-.3-1.03-2.21-1.91,0-2.64l-.84-.84-.6,1.2-1.68-.72c-.1-.39.34-.15.42-.28.16-.27.04-.62.06-.92l.47.48.03-.44.45.2v-.72s-1.44.24-1.44.24l.22-.61c-1.2-.43.07-.92.38-.14l.58-.19.03.46.96-1.08-.72-1.08c-.67-.08-.84.67-.97,1.19l-.95-.24-.28.93-.92.03.48-.96-.6-.25-.35.48v-1.68c-.18-.18-1.64.42-1.45-.48l-.36.48-.24-.48c-.67.26-.72,1.26-.83,1.33-.26.16-.89-.1-1.27.11-.45.25.25.75-1.14,0l.96-.24-1.2-1.32.36-.36c-1.02-.17-1.21.54-1.92.96l-.12-.47-.96-.14c-.69.42.05,1.97-1.2,1.58v-.72s-1.29.04-1.29.04l-.39.92h-1.19s-.24-1.44-.24-1.44c-.98.62-1.23-.25-1.31-.24-.15.02-.48.3-.82.35-.25.04-.67-.17-.75-.11-.06.04.42.76-.72.96.15-2.11-1.39-1.65-2.87-1.91l-.5,1.43-1.19-.95c-.43,1.65-2.09-.2-3.48.22l-.14.73c-.74.1-.88-.61-.98-.67-.15-.09-2.28.15-2.61.44-.09.44.38.08.48.36.14.4-.1.42-.36.18l-.12.66c.84-.41.94-1.16,2.06-.5l.22-.46.12.96s-1.54-1.01-1.2-.12c.21.53,1.34.02,1.44.6-.36-.02-1.28.28-1.53.24-.17-.03-.12-.46-.29-.48-.28-.02-.78.38-1.19.04l-.23.44-1.31-.49v-1.19s.23.48.23.48l.72-.35-1.08-.6-.12.72-1.2-.24-.11.47-.84-.6.95-.6c-.56-.98-.76.37-1.68-.24l.24.96c-.33,0-.65.14-.98.1-.74-.08-.24-.32-.36-.6-.46-1.08-.66-.39-1.17-.57-.76-.27-1.16-1.02-2.28-.85l.72.96-2.52.29-.12.67h-.81s-.39-.48-.39-.48c-.41.93.17,1.4-.49,2.16l-.38-.48c-.91,0-2.27.53-3.1.27-.43-.14-.38-.5-.51-.52-.91-.12-1.1.75-1.17.74-.54-.01-.91-.84-1.43-.02l-.84-1.91-.71,1.57-1.45.11.48-2.16c-.61.04-.89.15-1.08-.48l-.37.6c.92.27.84,1.82-.24,1.56l.48.72-1.2-.48-.12,1.2c-.22.32-1.23-.29-1.57.6-.18.49.63.39.84.83.18.38.13.8.11,1.21h-2.16s.24.96.24.96l-.94.27-.02.69,1.2-.6.24,1.32-1.7.14c-.35.56.23.94.26,1.43.04.87-.42,2.29-.24,3.23h-1.44s.48-.48.48-.48c-.58.23-.91-1.68-1.44-1.2-.44.4.39.49.43.59.32.84.45,1.02.73,1.63.14.31-.69,1.16,1,.66.07,1.05-1.29-.15-.96,1.2l-.44-.12c.24-.27.29-.49-.16-.36-.37.11-1.64,1.12-.72,1.32.18.04.7-.22.83.23.27.92-1.07.77-1.15,1.19l.67,1.09c-.58,0-1.73.16-.52.51l-.2.69.48-.24-.13.73.98.47-.37,1.33.48.23-.71.6c-.53-.93-1.04-.92,0-2.04l-1.42-.83c-.33.68-.72.59-.24,1.49.15.28.55.05.47.42l-2.4-.24c-.17.7.46.55.91.54l1,1.13-.72.61.48.35-1.91.26.23,1.91-.96-.24.5,2.14,1.18.14-.48.84-1.67-.47-.25.95,1.44.6c-.29.9-1.2.29-.96,1.32l-.23-.54-.72-.18c.85.9-.11,1.87-.24,2.88h-.23c.24-.53-.63-.53-.85-.43-.2.1.04.63-.59.42l-.24-.48c.14,1.17-.3.43-.43.53l-1.01,1.14-.47-.48c.12,1.17-.23.44-.43.55l-.09.36-.68-.2-.49,1.44-.48-.17-.12-.32-.12.32c-.21.55-1.34-.69-.96-1.03l-.96.24.24.96h-.7s-.26-.72-.26-.72l-.03,1.3.56.15c.3-.06.22.4.16.57-.17.48-1.87.74-1.66,1.82-.85-.38.12-2.17.96-1.92l-.6-1.92c-.78-.05-.89,1.55-1.2,1.68l-.39-.92c-1.27-.27-1.93,1.01-2.73-.28-.12.14-.89.9-.96.92-.27.12-1.34-.65-1.79-.2v-.96s-.36.72-.36.72c-.5-.21-.54-1.43-1.32-.84l.48.59c-1.04.63-1.89-1.15-2.27-.03l-.96-.44-.12,1.19-.36-.48-.72.48.36-.48-.73-.16c.25-1.23-1.1-1.26-2.03-1.01l-.11.44c.7.05.85.95,1.2,1.44-.58-.21-.74-.11-1.2.24,0-.38-.02-.96-.56-.93-1.05.07-.15.85-.79,1.42l-.81-.25c0-.47.19-.99.72-.96l-.48-.84-.36.36-.12-.96-.52,1.4-1.38.02-.02-1.18-.72.96-.72-.48.12.48c-.74.26-2.99.16-1.8-.95l-1.08-.49c-.65,1.04-1.23.29-1.08,1.93l.96-.24-.72,1.92c-.74.18-.29-.4-.63-.74-.27-.26-1.02-.41-1.28-.83l.6-.34.12-.86c-.04-.21-.9.04-.73-.6l-.84,1.44-.17-.68-.63-.09-.17-.68c-.46.52-1.33.64-1.81,1.09-.32.3.42.78-.71.59l.96-1.67-1.2-1.2-.49,1.2h-.83s-.22,1.22-.22,1.22l-1.33-.02.48-.24v-1.2s.48.24.48.24l.47-1.53c-.95-.72-1.47-1.62-2.74-1.6l.11.72-.48-.24.12.72c-.61,1.08-1.25-1.47-1.08-1.92l.24.72.69-.27-.14-.41.41-.16-.72-1.08.72-.48c-1.2-.47-1.36,1.49-2.16.96v.96s-1.44,0-1.44,0c-.07-.87,1.24-.65,1.44-1.44l-.73-.13c-.03-.29.26-.65.2-.8-.03-.07-.99-.9-1.09-1.05-.06-.09.41-.52-.3-.43v-.48s.71.24.71.24v-.72s-.85.03-.85.03l-.35-1-.96.24c-.24-1.01.97-1.39.6-2.4l-1.45.06c-.16.62-.74.16-1.31.43l.24.72c-.78.1-1.8-.01-1.32-.95h1.08s-.25-.84-.25-.84l.5-.37-.48-.24.96-.24.27,1.19h1.17c0-.75-.82-1.22-.48-1.67l-1.68.24c-.13-.92.05-.6.72-.84l-2.16-1.92.48-.23c-.31-.54-.49-.91-1.2-.85l.48-.72-.96.24.48-.24-.24-1.44-1.32,1.67-.35-.84-.73.13c-.25-.88,1.19-.26.71-.96-.01-.02-.34.04-.49-.16s-.12-.6-.27-.75c-.04-.04-.83.29-.68-.53l.72.13c.57-.45-.09-.69-.24-1.08l.98-.11.45-.84c-.68-.44-1.02-.74-1.78-.02-.17.16.17.98-.26,1.21-.96-.37-.93-1.22-.36-1.91l-1.31.23-.36-.84c.31-.5.76-.23,1.19-.12v-.72s-.47.24-.47.24l-.38-.94-.82.22c.01-.84.67-.63.24-1.44l.96.72c.22-.27-1.06-2.1-.72-2.39-.54.06-.64-.03-.84-.49l-.6.72c-.08-1.27-.18-2.28-1.66-2.37l-.26.45c-.13-.96.84-.53.24-1.68l.72.72.26-.82-.48-.24c.47-.76.06-1.51-.02-2.3l-.95.48c-.6-.75,0-2.17-1.2-1.92.33-.67,1.9.19,1.15-1.15-.04-.08-1.42-1.02-1.51-1.03-.97-.12-1.09.88-1.56.62-.61-.33.48-1.3.24-1.8h-1.92c-.18-.85.6-.29.92-.52.39-.28.36-.93-.41-.7l-.03-1.9h-1.2s1.2-.48,1.2-.48c-.72-.05-.5-.84-1.32-.73-.07,0-.19.79-.84.48l.24-.47-.96-.25.22-.7-.46-.25,1.44.24-.12-1.43.6.71-.24-1.2c-.64.27-1.13.09-.96.96-.11.14-1.37-1.32-1.36-1.56,0-.36,1.03-.71-.21-1.06l.13-.74h-.72s.24,1.2.24,1.2c-.6-.43-.98-.4-1.68-.24l.47-.58-.71-.98.48-.24-1.2-.36.46-.25-.22-.7c.26.13,1.4.06,1.46.11.31.28.02.89.46.85.19-.68,1.1-.53.96-1.68-.68.23-1.95.27-2.28-.44l-.59.2c-.13-.64-.64-1.03-.25-1.68l-.6.48c-1.93-1.54.22-2,.32-2.55l-.2-.81c-.77.59-1.2-.46-1.91,0v-1.31s-.73-.13-.73-.13l.48-.48-.48-.71.48-.12c-.49-.8-1.88-1.71-.96-2.52-.63-.58-.87-.19-1.26-.29-.45-.12-.85-.47-1.37-.45-.32-.98.94-1.31.7-2.26-.28-1.14-.72.97-1.2.59.07-.78.16-1.09.72-1.67-1.18-.2-.16-1.41-1.68-.73l-.22-2.98-.99-.14.24-.72-.73-.12.48-.36-.96-.48-.25,1.44-.24-.96-.24.3-.96.18c-.03-.29.86-.66.89-.76.17-.56-.46-2.07-.44-2.73.01-.55.71-.13.51-.83-.54.32-.81.51-1.44.24l.49-.36c.12-.44-.65-1.42-1.09-.85l-.12-.47.82-.22c.65-.49-1.28-2.34-1.66-.74l-.23-.45-1.32.09.95-.72c-.59-.13-.43-.67-.71-.95-.13-.13-.61.12-.73-.25l.72-.12v-.96s-1.68-.6-1.68-.6l.72-.12-.22-.7.7-.38-.96-.6.72-.12-.6-.6c-.19.66-.68.43-1.22.7l-.21-.44-.61.22v-.73s-.47.23-.47.23c.15-.76-.69-.59-.25-1.19-.81-.05-.49,1.02-1.44.72l-.13-.97.85-1.19-1.2.48-.24-.72c.23.97-.72.84-1.44.96v-.96s-.48.12-.48.12l.48-.83-1.68-.48c.42,1.32.18,3.06-1.56,2.88l.12-1.2.47.48c.27-1,.84-2.46-.72-2.4l.12.48-1.08-.48c-.19.68.81.42.61,1.22-.17.64-.73.65-1.22.94l-.22-.46-.61.22v-.7s-.96-.03-.96-.03l.57-.45.15-.51c-.51.18-.98.16-.96-.48h-.47s-.49,1.08-.49,1.08l.49.23c.28,1.45-1.96.4-1.7-.84l-.35.19-.12-.67-.26.45-.94-.21.48.36-.48.24.72.37c-.12,1.44-1.28.14-1.42-.34l-.38.02.12-.41c-1.22.34-2.5.18-3.65-.27-.27-.11-.1-.79-1.15-.09-.42.28.05.45,0,.83l.36-.48.12,1.44.36-.72,1.08.96-1.55.48c-.64-.28.05-.89-.14-1.17-.08-.11-1.71-.94-1.9-.75l.48,1.2c-.84.1-.45-.96-1.2-.72.45.56-1.09,1.49-1.55,1.44l-.26-.73,1.56-1.08c-1-1.63-.92-.33-1.32-.12-.52.27-.19-.59-.59-.48v.72s-1.44-.24-1.44-.24v.96s-.35-.47-.35-.47l-.97.47.12.49-.72-.24-.24,1.2h.73s-.01.95-.01.95l-.85.23c.11,1.17-.02,1.69-1.3,1.94l.48.95c-1.04.05-.46.75-.55.92-.07.13-.7-.13-.17,1.01l.72-.24c-.48,1.01.73,1.48.74,1.58.09.68-1.28,1.21-1.37,1.9-.05.35.95.97,1.07,1.74.1.63-.25,1.14.04,1.73-.45-.04-.8-.03-.72.48l-.35-.48-.61.4.03.78.69.03c-.22.34.07.79.02,1.03-.06.26-.73,0-.49.64,1.33-.38.57,1.09.93,1.9l-.46.14.48.12v.34c-.37.21-.39.91-.51,1.05-.08.09-.68-.49-.6.69.07.91.6,1.3.6,1.38,0,.64-.26,1.54.04,2.29l.71-.48c.52,1.91-1.17,1.28-1.2,2.64l-.47-.24c-.57,2.27.9,1.18,1.45,1.55.36.24-.12.88.35,1.09l.36-.48v.72s-.86-.18-.86-.18l-.38.64-1.16-.1c-.11.75,1.62,1.96,1.58,2.4-.04.55-.82,1.04-.39,1.8h-.72s0,.36,0,.36c.42.35.22,1.06.31,1.25.16.35,1.06.37.89,1.03-1.24.32-.24-.83-1.2-.72-.09.76.44,1.24.6,1.7.09.27-.09.5-.04.65.02.07.77.33.4,1.25l.43-.17c.23.75,1.21-.14,1.15,1.25s-.92.91-1.11,1.08c-.02.02.21.38.19.59-.1,1.33.12.62.24.96.47,1.39-1.55,1.04-1.64,1.47l.5,2.01,1.17-.22.51,1.17c-.59.23-1.62-.06-1.88.64-.48,1.24,1,.54.68,1.16-.4.8-1.73,1.82-1.18,3.05.17.37,1.27.73.21,1.05.47.43,0,1.47.04,1.53.08.1.55-.16.45.26l-1.44.25c-.18.73.75.48,1.25.74.42.22.66.69.64,1.14l-.92.39.71.6.36-.72.54.84c-.77.65-.52,2.1-1.73.85-.16-.39.55-1.15-.37-.97l.48,1.8c-1.32.48.12.65.24.96l-.41.16c.34.7-.27.2-.31.67.48.15,1.87.99,1.84,1.57-.62,1.05-2.53,3.41-.88,4.08-.96.04-.2,1.05,0,.72l.73-1.31.73.84-.51.5.16,1.07-1.1.59.96.36c-.03.53-.73.23-.85.45-.15.29-.13,1.69,0,1.95.36.7.43-.85.85.13l-.48,1.79.71.12-.34,1.1-.85.23.25.72c-1-.1-1.13.84-1.44,1.56.17,1.07.73,0,.78-.04.89-.51,1.33,1.46.41,1l-.94,1.2.24.25c.55-.22.49.12.72.59-1.08-.49-1.53.45-2.64,0l.96.96h-2.16c-.21.27,1.05.75,1.32.69.2-.04-.03-.81.48-.21l.11,1.68-1.44-1.2.24.72-.43-.17c-.11.74-.66-.21-1.08.72-.28.61.18,1.05-.15,1.5-.69.94-.8-.15-.86-.13-.42.09-1.04,1.1-1.13,1.14-.11.06-.46-.27-.81.03-.23.2-.31.7-.37.74-.06.04-.99-.06-1.13.07-.13.12.13.52-.27.42-.31-.84-.92-1.4-.73-2.4l-.95.12.35-1.08-.84.84.72,1.08-1.44.48.24-1.44c-.56-.06-.7.25-.5.7l-1.3.26.12-.48c-.86-.31-1.48,0-2.28.31-.14.06-.11.35-.15.36-.28.08-.8-.61-.69.29l-.36-.48c-.47.4-.88.77-.84,1.44h-.23c.04-.72-.84-.63-1.35-.93l-.33.93c-.82-.67-.61-1.29-1.92-.72l-.24-1.44c-.06-.06-1.08.5-1.12.54-.21.22-.1.79-.55,1.02-1.36.71-2.63-.68-1.93-2.04-.4.19-.82.75-.72,1.2h-.47c-.1-1.11-1.18-.47-1.84-.33-.21.05-.52-.15-.67-.11-.42.11-.21.73-.62.68l-.48-1.2h.96s0-.96,0-.96l-.43.17-.15-.39-.61.21c.96-1.06-.1-1.85-.24-.24l-.37-.49-.83.25c-.09-.61-.01-.62.48-.83l-.96-1.22c-.23-.1-1.39.86-1.56-.1l-.6.48.24-.96c-1.13.22-1.14-1.35-.96-2.16l-.96.48.24.72c-1.21-.08-.78-1.68-1.1-2.17-.2-.3-.37-.63-.4-.67-.08-.12-.63.11-.42-.52l.96.48.03-.69.57-.28-.96-.72-.12.72c-.09.11-1.95-.33-.77-.53l-.19-.67-.48.96c-.4.1-.16-.36-.27-.44-.74-.52-.83.9-1.29.68-.42-.37-.59-.93-.36-1.44h-.96s0,.8,0,.8l.48.39-.96-.24c-.36,2.14-1.17.49-1.59.3-.66-.3-.91.59-1.54.42l.72.84-.93.64.21.44-.72-.24.24.96-1.57-.68c-.51.89-.81.88-1.78.68l-.25,1.2c-.73.22-.39-.74-1.03-.69-.05,0-.62.21-.64.23-.07.08.74,1.71-.96.22.05.7-.32,1.37.48,1.56-.74.18-.48.65-.48,1.32-.67.14-.47-.25-.48-.72l-.44.2c-.21-.54-.35-.79-1-.67v.96c.17.08.83-.48.96.24l-.6.49-.12-.32-.48-.16-.6,1.2-.73-.46c.25-1.12.18-1.2-.83-1.69.27.68-.63,1.95-.63,2.29,0,.22.75.55,0,.79-1.01.33-.73-.45-.85-.61-.16-.21-.7-.17-.98-.31-.24-.12-.07-.61-.53-.47-.5.23-.05.75-.16.91s-.91.31-.93.77l1.44-.24-.24-.48c1.8-.05.61,1.97-.72,1.92l-.23-.87-1.94-.1.48-.47-1.68-.24.24.83-.72.13c-.1.4.3.14.43.27.06.06-.42.56.29.45l-.35.47-1.19-.49-.24.5c-.73-.56-1.08-.34-1.81,0l.72.24-.48.39v.81s.96,0,.96,0c-.49.77-2.14.42-1.68-.73-.5.21-.99.15-.96-.47l-.24.48c-.48-.35-.11-.61-.96-.35l-.24-.37.48-.36-.84-.6c.04,1.37-.88,1-1.68,1.68l-.36-.48v.96s-.72-.72-.72-.72l-.13.72c-.52.03-1.06-.34-1.54-.37-.45-.02-1.18.39-2,.12-.36-.12-.31-1.16-1.27-.51l-.11-.45-.36.48-.84-1.68-.12.96c-.19-.13-.88-.49-.84,0,.59.34,1.35.7,1.85,1.13.18.15.45,0,.3.55-.92-.28-1.59.78-2.04-.48l-.36.48c-.12-.67-.45-.56.25-.85-.34-2.14-1.22-.53-2.41-.58.38,1,.22,1.95-.84,2.39l-.36-.72.72-.12-.5-1.06-.7-.02.48.71-.84.25-.12-.85-1.66-.1-.27,1.18-.42-.17-.65.89-.14-.45-.94.21.36-1.68c-.58-.02-3.11.9-3.35.88s-.45-.48-.6-.39c-.02,0,.04.31-.08.39-.38.29-.96.18-.89.8l-.95-.71c-.22.54.97,1.47.24,1.68l-.12-.43-.35.19c-.05-1.34-1.64-1.96-1.45-3.36-.93.23-.06,1.41-.24,1.67-.76.31-1.05.3-1.67-.23l-.02.7c-.61.04-.86-.14-1.06.51-.49-.02-.51-.55-.91-.82-.67-.45-1.19.08-1.01-1.11l-1.33.12-.47,1.33c-.88-.28-1.54.03-2.53-.22-.31-.08-.72-.73-1.3-.6-1.23.27-.27,1.37-.73,1.78-.37.33-.41-.08-.53-.31-.3-.55-.54-1.07-.91-1.61-.55.2-.35,1.13-1.19.72l.24.96-.72-.24.24.48h-.72s.03-.61.03-.61l.69-.23c-.41-.61-1.07.22-.96-.6-.57.4-.86.88-1.68.71l.72-1.2c-.51-.15-1.2.5-1.3.49-.47-.04-.9-.41-1.22-.73-.54.8.53.52.36,1.19l-1.68.48c-.1-.39.34-.15.41-.28.15-.27.04-.61.06-.91l-.71.48c-.21-1.72-1.8-.96-2.28-1.92-.76.84-1.43-.42-2.04,1.08l.48.36c-1.14-.26-2.11.08-3.12-.48l.36.72-1.92-.45c-.34.03-.59,1.08-.35,1.41l-2.16.24.72-.84-.7-.38.23-.57-.48.12.24-1.2-1.43.24-.73-1.44-.48.48c.34.98-.72,1.16-.26,2.38l-.94.38.24.6c1.04-.75.32,1.41-.24.96l-.96-1.8.48-.36-.48-.24,1.68-1.2c-.72-.38-1.01.19-1.68.24v-.72c-1.57.15-.84,1.38-1.32,2.4-.99-.66-.12-1.24-.13-1.32,0-.27-.79-.22-.71-.6l.96-.12c-.66-.36-.89-.07-.96-1.08-.84.5-1,.97-2.16.72l-.24.72c0-.76-.45-1.68-1.2-1.92l.24,2.64-1.55-.49c-.4.74-.71,1.06-1.57.73-.16-1.87,3.03-.34,1.89-2.6l-.77-.04-.63.48-.24-.72c.21-.62.85-.79,1.44-.72l-.28-.93c-.62-.13-.68.37-.86.44-.44.16-.98-.3-1.14.49l-.6-.25.24-.47c-2.1.7-2.41-.65-2.4-2.4l-.72.48-.24-.72-.24.72c.15-1.15-.27-.41-.78-.71-.3-.18-1.53-2.03-1.62-.73-.41.11-.11-.41-.35-.44-.84-.13-1.8.52-2.53.68l.22-1.1-.4-.13c.38-.67-.38-.92-.65-1.64-.45.54-1.12.34-1.62.49-.15.04-.58.93-1.38.1l.72-.24-.48-.36h.72s-.25-.58-.25-.58c.64-.32.77-.63.46-1.32-.64-.38-1.49.34-1.78.36-.15,0-.33-.34-.61-.28s-.52.5-.95.38v-1.68s-.48.24-.48.24c0-.43-.21-1.25-.61-1.44-.42-.2-.36.27-.43.46-.22.56-.46,1.12-.65,1.7l-1.18-.5c-.41-.62.94-1.21.93-1.29-.3-1.07-.59-1.22-1.43-1.93l.72-.24c-.25-.64-.89-.82-1.2-1.08-.27-.24.85-.16.48-.72l-.81.23-.39-.95-.83.25.12-.48-.6.48c-.52-.39-.58-.59-.36-1.2-.62-.13-.37.13-.6.49l-1.08-.49c-.11-.41.38-.14.46-.26.16-.21-.59-.64.27-.84l-.26-1.53c-1.05,1.06-5.15-1.24-2.4-1.68.07-.48-.42-.64-.49-1.09-.11-.69.34-1.69,0-2.51l-1.2-.12-.23-1.56c-.78-.18-.22.63-.84.48-.17-.14-.89-1.18-.97-1.2-.93-.24-.44.98-1.31,1.2l.21-2.14-.45-.26,2.4-.49-.72-.36.72-.6-1.68.24-.25-1.44-.95.48v-1.2c-1.08-.26-.65.62-1.2.96l-.48-1.19,1.56-.96.6.72v-.96s.85.24.85.24l.11-.47c-.88.23-.82-1.25-1.34,0l-.56-.23c-.2.67-.51,1.24-1.22,1.43-.06-.78,1.12-.9.73-1.66l.71-.13-.84-1.56-.84.48.12-.48-1.2-.48c-.14.34-.68.61-1.08.8-.18.08-.46-.1-.48-.08-.37.54.63.52.7.86l-.23.82c-.77-.82-1.71.03-2.15.84l.72.59c-.92.02-.2.98-1.3.98-.07,0-.24-.83-.85-.5-.1.39.33.17.41.28.07.11-.12.48.08.77s.64.35.69.42c.1.15-.22.48-.17.64.02.05.93.57.91.64-.26.85-1.03-.48-1.2-.36-.27.65-.48.95-.25,1.68l-.44-.21-.64.92-.36-.48-.71,1.66c.73.13,1.6,1.47.23,1.22l.48.36-.48.24,1.2,1.08c-.4.03-1.1.25-1.36.54s-.51,2.52.64,2.23l-1.12.71.4,1.81-1.2.25v-1.44c-1.02.45-.07,1.34-.17,2.12l.4.04-.48.47h.96c-.27,1.58-.66,1.37-1.8,1.92l-.6-.71c.25,1.14.66,2.26,1.44,3.12l-1.33-.48-.23.48-.36-.48.48,1.2-.96.37c.84.83-.09,1.72.72,1.91l-1.93.72-.1,1.07-.85.24-.47,2.78.47.22-.49.24.72.12-.24,1.68c-.84.28-.69-.51-1.1-.67-.17-.07-1.26.12-1.53.2l-.24-.96-.28.93-1.17.03.12.72-.39-.93c-.89.32-.84-.36-1.41-.75.32.71-.48,1.07.21,1.56l-1.41.84-.04-.67c-.86-.02-.94-.42-1.64-.77.09.75-.46,1.72-1.2,1.8l1.92-.12c-.44.62-.69,1.14-.72,1.92.43-.08.65-.38.9-.43.3-.06.58.18.74.13.05-.02.02-.32.15-.37,1.45-.53.51,1.76-.24,2.12l-1.52-.76c-.11-.12-.05-.48-.04-.68ZM5.72,32.54c.45-.39.09-1.12.07-1.62-.67.55-1.21,1.1-1.2,2.04l1.13-.42ZM166.12,40.51c-.29-.96.94-.92,1.15-1.6.06-.2.24-1.09-.19-1.03l-.12.96-.36-.48c.16.78-.39.76-.84,1.2-.3-.61-.82-1.16-1.56-.84-.62.51.3.29.46.75.08.24.04.55.02.81l-2.13.28c-.1.75-.2,1.18-.87,1.65l-1-1.41-.56.13-.61.56-.59-.49.48-.39v-.81s-1.42.01-1.42.01l-.27.59.48.23c-.25.43-1.01.43-1.23.77-.26.4.13.96-.34,1.27l-.36-.48c-.34,1.2-3.35.86-2.4-.84l-.48-.12c.08.55-.6.63-.69.75-.06.08.44,1.37-.06,1.87-1.34-.22-2.2-1.09-1.66.97l-1.2.25.72.36c-.44.47-.84,1.04-1.07.12l-.58.27.22,1.17-.96.48.66.13-.14.33.44.27c-.7.2-1.13.69-.96,1.44l-.47-.12v-.98s-.96-.11-.96-.11v.96s.61-.02.61-.02l.12.99c.42-.17,1.13-.2.95.48h-.61s-.11,1.44-.11,1.44c-.59.3-.45-.51-.59-.48-.43.09-1.11,1.27-2.05.96.38.95.16,2.41-.96,2.64.1.46.38.36.72.24l-.24,1.2h.96c.03.43-.66.73-.71.9-.14.5.3.95-.49,1.14l.96,1.56.24-.48.25.6-.41.16-.07.8-.48-.13.72,1.92-1.08-.72-.25.49-1.07-.25.21,1.05.76.28c-.2.32.02,1.24-.03,1.39-.12.38-2.14,1.44,0,2.31l.62-1.68.12.96c.89-.15,1.08-.1,1.56-.96l.84.95c-.74-.21-.63.71-1.2.24.32,1.23-1.62,2.11-2.64,1.68l-.13,1.45,1.08.48-.47,1.19.48.24c-.72-.07-.98.34-1.2.96,1.08-.25.43.47.96.72-.33-1,1.09-.83,1.68-.84l-.96.36.55.23.16.48c-.6,0-.81.72-.96,1.2l-.59-.48-1.09.84c.63,0,.24.58.46.72.32.2,1.38.5,1.46-.12l-.72-.24,1.43.25v1.42s-.79,0-.79,0l-.27-.48c-.13.4-.72.62-.73.95,0,.55-.13.18-.59.25-.03.42.59.19.95.36,1.33.63-.47,1.57-.49,1.68-.13.78,1.21.8.73,2.04l-.72-.24c-.07.05.52.59-.24.6l.73.12-.17.43c1.09.37-1.32,1.82.41,2.57-1.01.24-.42,1.47-.53,1.92-.02.1-.64.07-.37,1.2.03.12.3.1.34.24.18.68.59,2.18-.4,1.92l-.22.26c-.36,1.25.62,1.48.66,1.57.08.21-.58,1.04.16,1.4.49-.52.87-.77,1.56-.46-.17.27.04,1.02-.04,1.13-.32.43-.93.2-.49,1.45l-.91.91-.71-.14c.01.73.09,1.37.96,1.2l-.96.6c1.18.51.25,2,.24,3l.72.24-1.22.62c.07.98,1.26.77.74,1.78l.71.12c-.81.57-.06.72.12,1.3.06.18-.13.48-.09.58.07.15.72.87.94,1l-.72.72.71.72c-.39.58-1.12.27-1.67.12.05.43.04.8-.48.73l.87,1.08-.39,1.56c.1.11,1.72-.66,1.68.36l-.72.12.48.35c-.21.8-.92.52-.98.74.13,1.65-.57,2.86.74,4.18l-1.06.26-.5-.5-.6.6,1.44.12-.48.47c.52-.04.48.01.29.44,1.19.36.49,1.27.47,2.09,0,.37.27.79.21,1.17-.03.23-.79.02-.5.63l.72.24-1.91,1.07c.36.95,1.88,1.64.23,2.41.81,1.18.29,1.41,1.61,2.22.72.44.22,1.12-.41.78l.24,2.64c-.58.08-.66.01-.84-.48h-.48s-.17.42-.17.42l-.44-.05.25,1.08.6-.48.36.48.48-.72-.48,1.81c.72.08.48,1.53,0,1.92l.95.12c.06.45,0,.83-.47.96-.22-1.01-1.02-.61-.63.42.03.09.58-.02.15.53l.95.25.28-.95,1.16.34c-.45.37-.42,1.23-1.08,1.32-.05,0-.2-.8-.83-.48-.12.35.93.18.48.71-.06.07-.78.08-.91.29-.27.43.25,1.09-1.01,1.29l.24,1.54c.91-.55.6.05.88.25.22.15.72.17.78.25.18.24-.42,1.37.25,1.79v.35c-.79-.08-1.26.14-1.46.93l-.44-.21.22.86c-.61.16-.3.52-.46,1.06l.72-.48c-.38,1.25-.15,1.8,1.2,1.2-.13,1.13.26,1.15-.96,1.56.73.15.33,1.14.48,1.8l.48.12c-1.25.25-.95,1.44-1.01,1.53-.07.11-.6.15-.67.41-.08.3.5.78.49,1.18,0,.09-.92.66-.74,1.45l.7-.1c.19.68.76,1.28,1.46,1.43l-.46.25c.18.58.29.82.94.71l-.44.26.2.45-.96-.24c0,1-.78,1.61-.25,2.62l-.97.41v.81c1.08-.16.47-1.71,1.69-.6l-.72,1.21.49.23-.49,1.08.69-.23.74,2.15c-.29-.22-1.38-.22-1.2.36.78.34.17,1.14,1.44.84l-.96.96,1.08-.43c.63.16.71,1.43.38,1.77-.26.26-1.38.35-.98.83.13.16.93-.83.72.48l.72-.24-.24,1.08h.48c-.82.67-.42,1.15.25,1.7,1.32-.24.8-.75,1.77.25.09.09.25.09.38.09.4.56-1.01.47-.24.84.37.18.61-.59.96-.6-.01.51.68,1.64,1.2,1.68l-.44.26.2.45-1.92.24c.15.63.8.24,1.31.32.41.06,2.36.37,2.47.46l.34,1.34,1.16.04v.72s1.44-1.2,1.44-1.2c.3.74-.19,1.72.6,2.11l.82-.59.15-1.28c.65.56,1.04,1.24.37,1.91.41-.14.48.51.61.5.4-.02,1.16-.81,1.92-.29l.23-.45c1.19.82,2.61.02,3.96.25v.97s1.69-.39,1.69-.39l.71.76-.48.59-.47-.48v.96s-.48.23-.48.23l1.09.48.59-1.2.72.24-.72-.96c1.26.1.68-.65.93-1.03.37-.56.82-.31,1.15.13.04.05-.22.49.56.9-.77.02-1.17.43-1.08,1.21h2.52s-.24-.72-.24-.72c.45.26.73-.2,1.1-.23,1.62-.13,3.82,1.28,3.7-1.7.92.63,1.92,1.19,2.51,2.15l.84-.59c.16-.31-.91-1.03-1.2-.84.08-1.17,1.1-.85,1.91-.7v1.42c.56-.15,1.84.25,1.69-.47h.23c-.13.74,1.59,1.12,1.88.89.14-.11.2-.6.41-.65.19-.05,1.08.67,1.53.81.65.2,1.32-.05,1.94.15l.02-.94.58-.26.36.47-.24.37c1.02.22,1.91.03,2.76-.57l.98,1.16,1.39-.72.63.97c.26.21.27-.59.62-.7.52-.17,1.7.69,2.01.22.63-.94-.98-.43-.72-1.2l1.41-.22.62.86,2.17-.66.13.73.95-.24-.24,1.2h.6c.59-1,1.11-1.17.6-2.4.9.16.43,1.14.48,1.2.45.56,1.18-.44,1.68-.48-.76-.67-.19-1.64.67-1.14.21.12.18.93,1.01.66l.24-1.2c.06.59-.3,1.38.41,1.49-.28,1.31,1.03-.07,1.75-.06l-.36-.72-.6.48c.03-2.05.41-1.13,1.23-1.32.13-.03,2.26-1.23,2.37-1.08.15.51-.41,1.87.48,1.68l.37-1.44c.54.25.69.5,1.31.24-.87-1.63-.94-2.66.6-.72l.48-1.2.12.96c.58-.12.22-.74.46-1.18l-.94-.26.36-.71c.96.52,2.41,1.8,1.8-.25l.49.13.21-.73.46.09c.38-1.08.04-1.23-.69-1.89l1.14.12-.18.35c1.57.61.89-.32,1.14-.88.4-.88.91-1.21,1.73-1.63l-1.22-.99.26-.8c-.7-.21-.42.58-.96.72-.24-3.33.86-.85,2.3-1.39.58-.22.12-.83.81-.77.15-.55-2.37.02-1.68-.71l1.44-.49c-.57-.21-1.24-1.72-.95-2.14.08-.11.61-.09.8-.24.18-.13.16-.94,1.1-1.1l-.24-.6c-.88.59-1.15-.23-.24-.6l-.73-.12.25-.48h-.72s0,1.2,0,1.2l-.48-.25-.24.72c-.11-.47-.38-1.98.12-2.16l.24.48c.63-.77,1.16-.69,2.04-.48.54-1.3-.73-1.31-.96-2.4l-.24.72c-1.69-.12.87-2.19.26-2.98-.27-.34-.94.15-.74-.62,2,.07.26-2.21,2.16-2.17l-.96-.24.48-.36-.48-.12v-.48s.42-.05.42-.05l-.13-.4.43-.04-.48-.24.48-.24c.1-.11-.74-.71-.48-.96.52-.48.69.62,1.08.48.73-.15-1.33-2.18-1.98-1.98-.44-.26.35-2.25.44-2.34.04-.04.7.46.95-.13l-.48-.95.48-.24-.84-1.32-.84.96c.54-.68-.37-.46-.45-.85l.21-.58-.72.48v-.59s1.8-.37,1.8-.37l-.12.48.93-.27-.7-2.72.5-.37c-.73.12-.84-.18-.95-.86-.12-.72.93-.16,1.18-.7.04-.49-.68-.93-.7-1.01-.05-.2.2-.66.17-.96-.08-.72-.68-1.18-.16-2.1l-.5-.38c.64-.31.8-.7,1.68-.49l-.48-2.16.72-.24c-.37.11-.49-.47-.64-.49-1.33-.16-1.04.94-1.25,1.27-.39.6-1.05.44-.5,1.85-2.41-.7-.3-1.09-.48-2.64h.84c.28-1.04.35-1.8,1.56-1.68l-1.2-.48.48-1.2-.72-.24.69-.02.03-.94-1.2.48.24-1.2.39.48.81-.24c-1.01,0,.35-1.66-.84-2.14l-.6.46-.24-.96h.96s-.22-1.58-.22-1.58c0-.11.69-.02.21-.58.98-.26.08,1.09.72,1.2.13-.72-.26-1.87.72-1.92v-.23c-.88-.22-1.08-1.34-2.26-1.21-.22.02-.2.5-.38.62-.23.16-.52-.12-.67-.07-.05.02-.4.84-.77.53.18-.86,1.05-2.47,1.88-2.35l.16-.41.35,1.09.97.11.24-1.2-1.44-.36.24-.6.48.24v-.73s.72.24.72.24l-.24-1.2-.72.72h-.48s.24-.47.24-.47h-.96s.72-1.44.72-1.44l.58.25.14-.48.24.48c.39.33.54-1.68.45-1.89l-1.17-.51c.49,1.71-1.59.74-1.44-.12.99-.4,2.19-.55,2.16-2.05l-.48.24v-.48s.96-.61.96-.61l-.74-.94c.59-.4,1.35-.68,1.21-1.58l-.6.48.12-.48h-.48s-.48.72-.48.72c.11-.59.44-.59-.18-.84l.18-.35h-.73s.72-1.33.72-1.33l-.48-.59h.96s-.57.9.12,1.2c.5.21.43-1.03.84-1.08l-.48-.24.48-.36-.92-.04c-.62-.82.48-1.37.68-2.36l-.63.48h-1.17s-.12-.72-.12-.72l-.96.48c.28-.87.36-1.33,1.43-1.2v-.95s.48.23.48.23l.25-.59-1.2-1.07c.84.22.11-1.39.27-1.64.24-.39,1.11-.44,1.38-1.89l-.45-.55.72-.48c-.43.42-.97,0-1.19-.43-.07-.14-.18-.26-.19-.42l.66-.72c-.4-.55-1.08-.34-1.68-.36l.48-1.2c-.73.29-.99-.05-1.2-.72l.96-.48.72,1.2c.01-.67,1.13-.92,1.68-1.2l-1.18-.27-.06-.64-.67-.16c-.06-.65.68-.82.73-1.01.17-.66-.76-3.56.7-3.91.1-.39-.34-.17-.42-.28-.21-.29.26-.96.66-1.03l-.24-.6-.36.48-.24-.48-1.32,1.44c-.12-.54.11-2.59.5-2.85.06-.04.87.25,1.29-.28l.24.49.6-.48c-.66.11-.5-.42-.48-.96l-.36.48-.96-.71c-.16-.27.4-1.53.35-2.04-.07-.87-.84-1.15.03-2.42l-.75-.96.48-.6-.48.12.24-.6-.61-.24-.23.48-.6-.84,2.16-.6-.48-.47.86-.23-.11-.69.45-.28-.48-.48.48-.48-1.92.72c.4-1.2,1.99-1.96-.24-2.4l.24,1.44h-.72s.24-.96.24-.96c-.37,0-.99-.07-.96-.6.98.04.84-.94,1.19-1.21.13-.1.74.29.97-.23-.42-.63-1.12-.1-1.67-.12-.17-1.01.68-1.41.9-1.85s1.36-3.02,1.25-3.18l-.95-.25.24-.96-.96.12c.32-.28.38-.98.71-1.19.19-.12,1.2.2,1.21-.37l-1.08-.49-.23.49-1.27-.83.19-1.81.95-.12-.72-.37c1.42-1.54-2-.61-1.32-2.16l.83.25c-.22-.69.94-1.51.14-2.18-.23-.19-.6.17-.73-.46l-.6.48-.24-.6c.17-.43.69-.09.71-.12.31-.54-.42-.47-.59-.72-.2-.3-.15-.85-.37-1.2l.96-.36-1.92-.36.48.96c-2.55.68-1.35-.98-1.46-1.17-.08-.12-.81-.13-.7-.62l.96-.48-.48-.24.48-.48-.5-.26.26-.82c-1.21-.41-.59,1.18-1.08,1.19-.61.02-.09-.92-.12-.95-.42-.43-1.04.24-1.32.25-.15,0-.11-.37-.18-.4-.3-.15-1.03-.05-1.02-.57l-.36.72-.73-1.56.48-.37v-.47s-.47-.12-.47-.12l.3-.13.18-.71h-1.44s.24,1.2.24,1.2l-.48-.12-.04.8-.92.28.48-.72-.46-.11c.83-1.44-1.21-1.21-1.71-1.48-.36-.2-.91-1.46-2.03-.99-.41.18-.12.52-.19.6-.86.99-.87.17-.93.13-.05-.03-.94-.16-1.09-.36s-.01-.61-.2-.9c-.45-.7-1.03-.87-1.78-.49l.24.47c-1.54-.47-1.09-.09-1.73.43-.18.15-.93-.52-1.03.29-.45,0-1.81-1.21-1.93-1.2-.29.04-.19.77-.6.71l.24-1.2c-.89.05-.51,1.35-1.56,1.35-.07,0-1.24-.39-1.28-.44-.17-.21.17-.75-.28-.67.19,1.01-.95-.19-1.19.61-.34,1.12,1.33,1.11.35,1.31l-1.3-.75.22-.7-1.44.24c.25-.29-.05-.88-.24-.72-.09.07.2.57-.24.48l-.24-.72c.13.88-.41.11-.67.28-.06.04-.03.4-.21.44-.54.12-1.22-.59-1.52.71h.73s-.12,1.44-.12,1.44c-1.33-.46-1.47-1.81-2.97-1.72-.05-1.65-1.08.18-1.93-.42l-.27.95-.84-.48-.23.48-.38-.7-.7.22.24-1.2c-1.14-.06-1.71.02-1.92,1.2l.72.24-.83.49-.57-.28-.04-.92-.72.72-.24-.72-.72.24.72-1.08c-.02-.18-1.5.52-1.56.59-.31.36-.2.93-.85,1.08l.25.6.47-.24-.48,1.44.96-.48c.37,1.52-.98,1.95-1.16.55-.05-.37.25-.74.15-.97-.03-.07-.81-1.08-.9-1.17-.34-.34-.83.1-.73-.56h-.47c-.09,1.15-1.16-.85-2.3.17l-.35-.42.96-.24h-1.2s-.11-.48-.11-.48c-.22.53-.82.19-.84.24-.1.18.71,1.68-.72,2.29-.6-.1-1.11-.45-.96-1.09l-.35.48-.6-.25ZM298.36,43.88l-.72-1.68v1.2s-.48-.12-.48-.12l-.22.59c.81.6,1.78.42,1.9,1.7-.92-.32-1.81-.79-2.63,0l-.72-.96c-.06.55-.07,1.23-.72,1.44.15-1.23-.33-.44-.73-.62-.34-.15-.8-.73-1.33-.82l-.59.48-.12-.95c-.82.24-2,1.17-2.4,0l-.6.48c-.34-.25.12-1.91-.72-1.68l-.06,1.38c-1.04.57-.75-.11-1.62-.42-.07.69-.47,1.59-.84.48-.4.17-.31,2.46-1.55,2.42l.23.7c-.81-.55-2.03,1.6-1.91,2.02l.94.98c-.31.6-1.2.16-1.46.5-.6.79.44,1.52.26,1.77-1.12.13-.61,1.77-.95,2.65.6-.11,1.39-.44,1.58.24l.58-.24.48,1.44-1.16.28.2.43c-.69.11-1.1.18-.96.97l-.72-.24-.02.95-.7.25c.68-.15.21.45.46.6.6.37,1.96.19,2.19,1.46v.44c-1.11.39,0,.94-.04,1.43s-.81.89-.92,1.49c-.17.89.54,2.03.46,2.34s-.62.53-.67.8c-.01.08.21,1.35.26,1.58.06.35.45.67.44,1.03s-1.11,1.46-1.11,1.91c0,.22.52.68.39,1.08l.72-.24c-.27.4-.14.87-.26,1.26-.05.18-.35.18-.38.24-.05.1.15.33.1.38-.13.13-.52-.13-.42.28l1.64-.21.52.82-.48.36.48.12-.25.6-.47-.48v.72c-.4.1-.11-.41-.4-.48-.96-.25-1.14.23-1.52.96.31-.05,1.65,1.27,1.68,1.38.03.13.22,1.63.19,1.71-.03.07-1.11.61-.91,1.23.38.5,2.02-.8,2.16.36l-.72.48.48.24-.96.6-.72-1.44c.2,1.17-.41.24-.72.96l.72.24-1.19.36.71.6-.71.12c.29.59.3,1.49-.24,1.93.36.58.99.24,1.5.37.14.03.31.71.89.47-.5,1.46-.88.37-1.68,1.08,1.06.35-.33,2.26,1.2,2.52l.25-.6c-.84-.2-.4-1.07-.48-1.79.45-.07,0,.59.58.47.68-.14.43-.84,1.09-.71-.66,2.07.53,1.54,1.16,2.19.08.08.26,1.78.53,2.12,1.01-.06,1.42-.48,1.7-1.42l.93.23c-.76,1.12.5,1.03,0,1.92l.71-1.33.84.13.25.72.23-.48,1.31.5c-.26.57.25.89-.46,1.06.69.99.91,1.42.96-.12l.24.48.48-.37c-.43-.49-.95-1.53-.07-1.8.68-.21.77.12,1.03.61l-.95.48.24.6,1.2-.25.12-.95.6,1.43.72-.48-.24.71,1.08.48.36-.47-.72-.24c.69,0,1.76-.18,1.97.67l.67-.2c.11-.4-.42-.13-.48-.36-.2-.66.9-.56.25-1.56l1.29.02c.61.28.08.76.15,1.28.08.55.58.91.24,1.58l1.21-.61-.73-2.03c.77-.17.7.25,1.08.71.41-.39.41-1.06,1.06-.73l.14-.71.63,1.19c.85-.42.58.14,1.3.49l.12-.48,1.2,1.19.48-.12-.24-1.08.47.24.25-.96.71,1.2c-.12-.76.62-.35,1.02-.53.34-.15.5-.47.78-.58s1.12.27,1.68-.34c.11.87-.39,2.23.98,2.41.89.12,1.14-.87,2.26-.01l.36-1.59,1.21.15-.09.61.69.12-.48.48h1.2c.26-.63-.49-.41-.5-.61-.02-.65.45-.99,1.07-.83.22.06.03.66.51.48l.5-.97.82.02v.61s.48-.13.48-.13c-.48.32.26,1.21.38,1.21.23,0,1.72-.54,2.24-.62.49-.07.9.19,1.47.04.46-.12.46-.56.5-.57.05-.02,1.08-.03,1.13,0,.11.08-.09.69.51.42l-.24-.48c1.23-.72,1.33,1.03,1.72,1.14.2.06.52-.22.78-.21s-.03.61.38.5l.12-.48,1.31.71.49-1.2.48.25-.24-.96,1.8-.24c-.17.47,1.04,2.14,1.32,1.92l.5-1.55-.5-.25.6-.84c.17,0,.62,1.01.94,1.21.67.42,1.28-.05,1.82.94l-.45-2.02-.75-.15c.5-1.01,1.29.09,1.21.96.55-.44.44.12.6.16.8.23,1.09.18,1.9-.15l.38.35-.48.24.96.37-.24.47h.72s.12-1.68.12-1.68c.44.14-.16,1.38.48,1.2s.42-.49.64-.68c.06-.05,1.44-.02,1.27.43.91-.09,1.35-.96,1.44-.95.73.06,1.21,1.2,1.57.95l-.24-1.68.43.17.15-.39.82.25.03.93.73-.12.47.84,1.32-1.92-.12.96.6-.48.47.47c.61-.38.89-.61,1.08-1.33l-.47-.34c1.83.33,1.12-.8,1.42-1.09s.8-.14.99-.25c.59-.37.55-1.35.74-1.98.87.31.23-.45.94-.65l-.25-1.06h.72c-.23-.52-.1-1.41.11-1.92.31-.75.39.51.6.24l.12-.71c.77.19.85.08.72.96.82-.05.93-1.06.84-1.68-.99.56-1.76-.21-1.2-1.2-.94-.26-.45.62-1.2.48.08-.98-1.14-.7.12-1.69l1.08-.46c-.97,2-.21,1.12.13,1.4.28.24.21.78.59.75.3-.84-.48-1.26-.49-1.34-.04-1.33.86-.65.97-1.54h.35s.12.48.12.48c.99-.35-.51-.85-.72-1.81.89-.31.5-.79.72-1.55h-.96s0-1.68,0-1.68l1.92-.24c.08-.87-1.16-.81-1.68-.96v.97c-.51-.22-.66.15-.84-.49l-.36.48v-1.44s.82.26.82.26c.26-.8.28-.22.86-.38-.31-1.04-.93-.24-1.72-.5-.58-.19-1.49-1.04-.32-1.31.1-.02.19.44.37.58,1.56,1.12,1.47-1.19,1.19-2.25l.73-.12-.02-.82c-.49-.22-1.05.19-.95-.49l-.71.72c.25-1.18-.32-2.64.96-3.24l-.48-.36h1.44c-.84-.61.07-1.06,0-1.2l-.84-.72c-.59.85-.26,1.61-1.56,1.68l-.44-1.33c1.2-.92,2.06-1.04,2.59-2.64-1.48-.57-1.03-.99-.99-2.17,0-.13-.41-.08-.46-.26-.23-1.03,1-3.08-.47-3.57l.66-1.68-.41-.35-.48.84.48.24-1.2.36-.22-1.53c.15-.5.99.16.81-.89-.06-.38-.52-.87-.36-1.42l-.47,1.2-.72-1.91.72-.37-1.43-.6-.26,1.06.49.37-.93.22-.73-1.8c.66.01.44-.93.16-1.24-.26-.29-1.78-.49-2.09-1.15l.72-.6c-.41,0-1.64-.02-1.92-.11-1.28-.39-2.06-1.52-3.48-1.28-.15.03-.08.34-.23.37-.27.05-.93-.14-1.32.06v-.96s-1.83.96-1.83.96l-.55-.19-.15.44-2.64-1.44-.12,1.44c.86-.15,1.37-.23,2.14.27l-.22,1.17c-.37.08-.23-.41-.47-.57-.5-.34-1.41-.41-1.56.33-.63-.2-.64-.84-.84-1.44l.72.12-1.32-.84-.47.48-.37-.72-2.51,2.16c-1.04-1.16.48-.71.55-.75.53-.33.81-2.28-.31-2.27-.38-.05-.92.67-1.07.99-.3.6.99-.12.47.47-.46.53-1.36.65-1.93.24-.27-.19.08-.78-.47-.84l-.24.58-.47-.08-.04.66-.94.03.48-.96-.68-.04-.16-.68c-.92-.09-1.42,1.33-2.21.91-.09-.05-.08-.47-.52-.56-.47-.1-1.13.22-1.7-.1l.72.84-.36.59c-1.46-1-2.78.26-4.2-.23l.96-.47c-.67,0-1.14-.25-1.32.48l-.48-.49-.96.96c-.7-.43-1.76-1.24-2.53-.6-.39.32.04,1.02-.72.84l.25-1.67,1.19-.24c-.59-.16-.89.15-1.08-.49l-.96.5-.24-.49-.74.73-.82-.24v.96s.96-.24.96-.24v.96c.78,0,1.12-.24.96.72l-.69-.23c-.13.44-.39,1.02-.99.95l.47-.48v-.48s-.42-.04-.42-.04l.19-.44-1.17-.28-.03-1.41c-.97.03-2.24.39-.96,1.08-1.19,1.51-.85-.33-1.8-.36l-.6.96-.27-1.06.5-.38h-.72s.72-.48.72-.48c-1.3-.48-1.88.38-3.12.48l.48.36c-1.09.33-1.43.91-2.28,1.56-.46-.32.48-.8.36-.95-.03-.04-.71.05-.48-.72l-.96.24v-.73s-.44.2-.44.2l-.4-.67c-.25,1.59-2.29,1.02-3.48.96l.48.96c-1.25.13-1.08-.75-1.23-.91-.12-.12-1.46-.14-1.77-.71l-.59.42ZM430.6,141.8c.09.07.53.09.8.27.24.15.62.64.75.64.47-.01,1.1-1.18,1.32,1.02-.89-.56-1.26-1.2-1.91.12.17.4.58.12.66.19.27.23.19.82.88.87.61.04,1.46-.61,1.7-.61.11,0,1.72.72,1.8.62l-.17-1.04c.35-.25.51-1.8,1.01-1.6.79.31-.24,2.2-.11,2.4l1.2-.24c-.28,1.01.47.99.68,1.26.06.08-.15.99.05,1.14.51.39,1.24-1.81,1.44-2.16l.48.96.96-.24-.36.72c.85-.27.65-.93,1.07-1.56l1.34.08.23-.44,2.85,1.15.99-1.15c.7.87-.22,2.18,1.32,2.16.11-.1.09-2.26.72-1.68-.48.64.27.37.36.92.05.35-.25,1.02-.1,1.21l.58.27c.23-.83.81.25.66-1.15l1.37-.77c-.11.57.45.4.63.55.4.33.32,1.1,1.15.65l.14.72c.58-.14.31-.54.24-.94l.94-.39-.22-.82c.6-.14.65.62,1.05.86,1.67.98,1.02-1.24,1.11-1.34.04-.05.97-.08,1.27-.25.24-.13.16-.45.18-.47.27-.18.7.66,1.43.48l-.22-1.58.44-.21-.22-.61,1.68-.37-.48-.47c.31-.42,1.27-2.14.95-2.51l-1.28-.27-.39.38.25-1.31.96.48c-.55-1.22.2-1.19.24-1.36.29-1.11-.5-1.4-1.34-1.76l-.11-1.68-.96.24c.27-.53.53-1.16.24-1.74-.14-.28-.56-.05-.47-.42l1.2-.24-1.45-.11v-1.54s-.95-.39-.95-.39l.7-.13c.08-.79-.26-1.72.5-2.27-.87-.17-1.12-.51-.71-1.37.23-.48.94-.17.95-.66l-1.19-.49-.27,1.18-1.66.02-.48-1.44.72.24v-.72s-.73-.13-.73-.13l-.22-2.99c.58-.11.4.07.58.46l1.1-.22-.48-.96c1.18.26.9-1.07.03-.75.04-1.44-.6-1.16-1-1.56-.66-.67.18-.39.24-.8l-1.68-.25.96-.48-.72-1.2,1.2-.49-.48-.71.72-.48c-1.21.68-1.36-.76-2.16-.48.34-.89.97-1.24.48-2.4l-.72.24c.45-.77-.4-.93-.44-1.08-.18-.57.38-2.37-.3-3.22-.04-.05-.92.4-1.05-.46-.11-.71.4-1.54.83-2.08l-.48-.12.42-.27c-.07-.81.17-.9-.66-1.29l.47-.36.36.24.34-1.9-.94-.26c.35.51-.4.61-.24,1.44-1.28-.63-1.55-.83-1.17-2.21.01-.04.22-.43.3-.61.03-.07.64-.05.39-.66-.23-.56-1.4-.16-1.92-.36-.37-.43,2.26-3.26-.24-1.92.06-1.05.05-1.8-.96-2.28l.36-.6.36.48c.16-.98-.13-.54-.73-.85-.03-.14.02-2.06.06-2.16.09-.22.53.05.43-.34l-.84-.47c-.35.24-.49.91-.84,1.08-.23.11-.53-.1-.59-.07-.13.05-.28.49-.84.42v-.96s.47.48.47.48l.03-.43.44.19c-.03-.72.23-1.02.97-.96.16-.76-.48-.42-.96-.47.46-1.88-1.62-.46-2.16.13-.34.38.05,1.41-1.2,1.3-.05-1.15,1.24-1.24.48-2.4l.96.72.22-1.06-.94-.38.26-1.28c-.08-.33-1.14-.18-.98-.87l-.48,1.2-.24-.48-1.2.48.72.24-.25.48.72.24c-1.39-.39-.71.87-1.68.97.26.76,1.14-.01,1.78.46.63,1.58-1.97.39-2.05,1.91l-.44-.21c-.1.62.67.71.7,1.3,0,.14-.21,1.26-.26,1.31-.18.16-.76-.19-.68.27.35.05.95.29.86.74-.26,1.37-2.03.29-2.42,1.39l.12.75.83-.72c.24.81.51-.13.84.84l-.7-.1-.25.46-.24-.72-.24.96.7.02.02.7-.72-.24-.24.85.6-.36.84,1.2c-.26.21-1.47-1.04-1.73.19l-.43-.18c.31.98-.52,2-.96,2.88l.96.72c-.94-.19-1.08.51-.24.84-.85.67-.79,1.64-1.09,2.51-.07.2-.45.38-.54.67-.25.82.58,1.66-.28,1.99v-1.2c-1.26.1-.74.39-.86.83-.18.7-.34.95-.1,1.81l.96-.24-.48.84,1.42.63-.22,1.17c-.86-.71-.77-1.41-2.14-.94.41.88-.49.43-.62.68-.24.46.03,1.23-.59,1.59,1.25.53.15.63.21,1.69l.51.59c-.6-.09-1.2,1.31-.94,1.67l1.14.31.04.66.72-.24v.48s-.46.11-.46.11l.22.86-.51-.71-.68.21-.25-.46c-.67,1.38.43.94.74,1.35.29.39.21,1.28.22,1.77-.81-.4-1.54-.47-2.4-.23l.24,1.19c-.94-.23-1.07.66-.27.74l.03.45c-1.04.04-.64,1.35-1.08,1.95l-.6-.02c-.05.57.25.87.72,1.08-.84.49-.42,1.04-.72,1.8l.72-.96c.09.56.39,1.04.96.72v.96c-.44-.04-1.53-.21-1.87.05-.19.14-.13.59-.26.77-.19.25-1.09-.12-.86,1.39.06.4.51.38.64.78.22.67.29,2.14.81,2.79.21.26.77.04.58.71l-1.54-.5-.25.5-.6-.48c.07,1.04.39,2.21.26,3.26-.06.46-.49.33-.48.45.03.46.46,1.16.7,1.57l-1.19.02-.25.7c-.09-.77-.88-1.07-1.44-1.44l-.24,1.44c.86-.55.62.13.9.22s2.14.58,2.22.5l.24-.96v1.2c.72-.5.41.19.48.24h-.6s.12.48.12.48l-.72-.24-.24,1.92,1.68-.24-.18-.44.42-.16-.48-1.32ZM75.45,142l-.89-1.88c-.96.81.1.99.1,1.06-.01.17-.25.42-.23.7,0,.09,1.03.95.97,1.36l.71-1.08-.67-.16ZM78.03,141.78v-1.66s-1.66.49-1.66.49v1.67s1.66-.49,1.66-.49ZM37.48,141.79c-1.03-1.52-2.06-.59-1.44.96l.7-.25-.22-.46.96-.25ZM106.6,181.4c-.06-1.25-.91-1.19-1.91-1.19-.48,1.24.85,1.72,1.91,1.19ZM426.85,182.76c-.14-.26.01-.59-.21-.64l-1.56,1.44c.93-.44.51.08,1.01.21l.89.02c.43-1.1,0-.81-.12-1.03ZM478.83,192.21l-1.56.7-.59.73,1.68.13.96-.97-.49-.59ZM74.43,217.88l-.84-.24-.12,1.44c.96-.31.85.64,1.68.48l-.48-1.2.96.72c-.88-1,.01-.37-.03-1.41l-1.04-.29-.14.49Z"/>
        <path class="cls-1" d="M515.32,220.28l-.12.72c.25.42.99-.2,1.32,0,.02.01-.18.3-.09.48.42.83,1.36.64.33,1.92l-1.67-1.35-1.69.15.72-.6-.48-.12v-.48s.43.2.43.2c.19-.54.64-.95,1.24-.91Z"/>
        <path class="cls-1" d="M37.05,9.7c.47.2,1.28.24,1.76.57l.34-.47.24.72-2.89.36-.45-1.05.83-.51c.2-.08.07.34.17.38Z"/>
        <path class="cls-1" d="M78.03,134.12c-1.02-.33-1.85.34-1.68,1.44l-.95-1.08,1.14-.89-.18-.43,1.45.12.23.84Z"/>
        <path class="cls-1" d="M359.3,133.15c-.83-.23-.92-.66-.94-1.43l.43.16c.05-.49.4-.22.53-.31.24-.17.14-.76.59-.57,1.21.5-.49,1.65-.62,2.15Z"/>
        <path class="cls-1" d="M399.63,52.04c-.62.56-.69-1.51-.65-1.74.12-.68.49-1.32,1.14-1.62l-.48,3.36Z"/>
        <path class="cls-1" d="M494.44,107l-1.18-.26c.29-.63-.01-1.3-.25-1.9l1.56.7-.12,1.46Z"/>
        <path class="cls-1" d="M62.44,216.92l-.49.84-2.63.35c.31-.55.79-.8,1.42-.75l.02-.69,1.68.24Z"/>
        <path class="cls-1" d="M32.38,131.33c.52.24.83,1.27.54,1.82l-1.41-.51-.03-1.41c.25.11.73.02.9.1Z"/>
        <polygon class="cls-1" points="108.28 28.28 108.02 28.98 107.58 28.77 107.07 30.2 105.88 29.6 107.08 29.24 106.84 28.04 108.28 28.28"/>
        <path class="cls-1" d="M138.27,219.31l-.71.49c.09-1.36-1.64-.85-1.44-2.16,1.46-.02,1.54.47,2.15,1.67Z"/>
        <path class="cls-1" d="M88.11,105.56c-.42.11-.04-.71-.59-.48-.79.34.42,1.4-.6,1.2l-.12-.67-.36.19-.24-1.2c.93.26,1.41.15,2.16-.48l-.24,1.44Z"/>
        <path class="cls-1" d="M45.16,23.72c-.2.25-2.07-.13-2.4-.36l.58-.77c.31,0,2.26.56,1.81,1.13Z"/>
        <path class="cls-1" d="M387.4,220.52l-1.2,2.16c.03-.55-.12-.95-.72-.96l.46-.25-.22-.7h.84s-.12-.48-.12-.48l.96.24Z"/>
        <path class="cls-1" d="M532.12,172.52c-.25,1.07-.5,1.95-1.08,2.88l.14-2.86.94-.02Z"/>
        <path class="cls-1" d="M119.31,5.24l-.48-.24.24.96c-.64.09-1.06-.09-1.44-.6.86-.63,1.56-2.45,1.67-.12Z"/>
        <path class="cls-1" d="M273.4,4.28l-.46.25.22.71h-.73s.25.48.25.48l-1.44-.24c.51-.73,1.2-1.64,2.16-1.19Z"/>
        <path class="cls-1" d="M232.12,216.68c-.87.86-1.24,1.72-2.64,1.19l.61-.26.11-.46.47.48.25-1.44,1.2.48Z"/>
        <polygon class="cls-1" points="398.67 102.67 397.45 103.04 397.48 103.64 396.76 103.27 398.32 101.48 398.67 102.67"/>
        <path class="cls-1" d="M56.92,74.84l-.25,1.42c-2.11.44-1.42-1.78.25-1.42Z"/>
        <path class="cls-1" d="M402.61,87.21c.34.27.66.45,1.05.63l-.42,1.39-.26-.44-.45.2-.25-2.04c.27-.41.23.17.33.25Z"/>
        <path class="cls-1" d="M400.12,96.92l-1.44,1.2c.44-.82-.73-1.53.12-2.15l1.32.96Z"/>
        <path class="cls-1" d="M1.48,30.44c-.9.1-.04-1.03-1.2-.72-.2-.77.46-.93,1.07-1.2l.3.48-.17,1.44Z"/>
        <path class="cls-1" d="M402.28,95.72c-1.01.19-.59-1.89-1.44-1.2.51-1.79,1.75.05,1.44,1.2Z"/>
        <path class="cls-1" d="M435.4,183.56v1.2s-1.68-.24-1.68-.24c-.13-1.41.86-.64,1.68-.96Z"/>
        <path class="cls-1" d="M235.23,214.04l.04.42.44-.19c.64.57-.93,1.94-1.2,1.68l.24-1.92h.48Z"/>
        <path class="cls-1" d="M505.48,221.96c-.5.9.27.61.48,1.43l-1.07.49c-.83-.15.17-2.43.59-1.92Z"/>
        <path class="cls-1" d="M283.06,182.9c.11-.09.48-.17.64-.19,1.52-.17-.25,1.16-.82,1.57-.57-.11,0-1.23.18-1.38Z"/>
        <path class="cls-1" d="M386.61,147.03c-.16.21-.8.1-.42.76l-.96-.25.72-1.67c.41-.02.8.96.65,1.15Z"/>
        <path class="cls-1" d="M500.92,221.24l-.18.43c1.13.19-.08.88-.65.76-.49-.1-.08-.83-.16-.92-.12-.13-.55.12-.44-.28h1.44Z"/>
        <path class="cls-1" d="M87.33,99.39c.15.19.15.64.31.88l-1.03.21-.65-.57.83-.84c.12.19.42.17.54.32Z"/>
        <path class="cls-1" d="M296.32,131.96c.16.08.16.16,0,.24v-.24Z"/>
        <path class="cls-1" d="M196.6,181.16c.25.63.02,1.15-.36,1.69h-.6s.24-.48.24-.48h-.72s-.12.48-.12.48l-1.32-.61,1.08-1.55c.47.48,1.17.83,1.8.48Z"/>
        <path class="cls-1" d="M176.91,180.45c.14.86,1.07.47.45,1.39l-1.4.04c.18-.55.1-1.5.95-1.43Z"/>
        <path class="cls-1" d="M147.64,143.72l-.12.48c.52.21,1.54.04,1.8.72-1.07.55-.92-.14-1.07-.18-.31-.09-1.2-.16-1.56-.06l.96-.96Z"/>
        <path class="cls-1" d="M286.31,49.1c-.2.19-.63.25-.91.3l.48.24-.71,1.19-.72-1.91,1.2.24c-.07-.71-.02-1.39.72-1.68-.05.43.32,1.28-.05,1.62Z"/>
        <path class="cls-1" d="M303.16,44.6c-.28.71.31,1.64-.36,2.15l-1.32-1.08c.39-.4,1.11-.44.72-1.08h.96Z"/>
        <path class="cls-1" d="M449.8,94.04c.15.52-.49.66-.59.95-.09.24.35,1.42-.25,1.45-.08,0-.87-.54-.96-.71-.55-1.03.88-1.81,1.8-1.68Z"/>
        <path class="cls-1" d="M438.99,113.48c-.41.1-.09-.4-.39-.47-.04,0-.73.05-.77.07-.1.05.11.51-.28.4l-.24-1.44.72.72c-.19-.75.7-.64.25-1.19l.95-.25c.41.92.17,1.33-.24,2.16Z"/>
        <polygon class="cls-1" points="450.52 99.08 450.04 100.04 449.32 100.04 449.31 99.32 447.64 99.56 447.91 98.63 450.52 99.08"/>
        <path class="cls-1" d="M439.93,106.56c.05.05.59,1.27.51,1.39-.26.38-1.52-.13-1.81-.47-.28-.87.82-1.37,1.3-.93Z"/>
        <path class="cls-1" d="M432,136.08c.11.1.32.83.29,1.01l-.52.29.26.82-.96.24.21-.61c-.56-.18-.56-.77,0-.93l-.22-.85c.22.15.89,0,.92.04Z"/>
        <polygon class="cls-1" points="456.28 141.8 456.25 142.73 454.36 143 454.52 142.28 456.28 141.8"/>
        <path class="cls-1" d="M434.18,126.2l.26.95c-.95-.21-.71.85-1.44.72.4-.68.12-1.07-.24-1.68h1.42Z"/>
      </g>
    </g>
  </g>
</svg>